<svg width="580" height="400" xmlns="http://www.w3.org/2000/svg">
 <!-- Created with Method Draw - http://github.com/duopixel/Method-Draw/ -->

 <g>
  <title>background</title>
  <rect fill="#fff" id="canvas_background" height="402" width="582" y="-1" x="-1"/>
  <g display="none" overflow="visible" y="0" x="0" height="100%" width="100%" id="canvasGrid">
   <rect fill="url(#gridpattern)" stroke-width="0" y="0" x="0" height="100%" width="100%"/>
  </g>
 </g>
 <g>
  <title>Layer 1</title>
  <style transform="matrix(2.01197131275741,0,0,2.01197131275741,0,0) " type="text/css">.st0{fill:#59666E;}
	.st1{fill:#1E353A;}</style>
  <g id="svg_64">
   <g transform="matrix(2.01197131275741,0,0,2.01197131275741,0,0) " id="svg_5"/>
   <g transform="matrix(2.01197131275741,0,0,2.01197131275741,0,0) " id="svg_7">
    <path id="svg_8" d="m155.300067,64.311808c0,0 1.7,1 2.7,2.2l1.6,-1.1c0,0 0,-0.9 0,-1.8c0,0 -1.7,-2 -3.3,-3.1l-1,3.8z" class="st0"/>
    <path id="svg_9" d="m133.200067,64.311808c0,0 -1.7,1 -2.7,2.2l-1.6,-1.1c0,0 0,-0.9 0,-1.8c0,0 1.7,-2 3.3,-3.1l1,3.8z" class="st0"/>
    <path id="svg_10" d="m165.400067,57.911808c-1.6,-1.2 -3.1,-2.5 -4.7,-3.8c-0.3,-0.2 -0.7,-0.4 -1,-0.6c-1,-0.5 -1.8,-0.3 -2.3,0.7c-0.5,0.8 -0.6,1.7 -0.4,2.6c0.1,0.3 0.5,0.6 0.8,0.8c0.6,0.3 1.2,0.7 1.7,1c0.3,0.2 0.7,0.5 1,0.7c0.5,0.4 1,0.8 1.5,1.2l0.2,0.2l1.7,-1.4c0.6,-0.5 1.3,-0.9 2.1,-1.3c-0.1,0.2 -0.5,0 -0.6,-0.1zm-3.5,2.7l0.2,0.2c0.5,-0.5 1.1,-0.9 1.8,-1.4l-2,1.2zm23.9,16.4c-0.1,-1.3 -0.3,-2.6 -0.6,-3.9c-0.1,-0.6 -0.5,-0.8 -1.1,-0.7c-0.3,0.1 -0.6,0.2 -1.1,0.3c0,-1 0,-1.9 0,-2.7c0,-0.1 0.2,-0.3 0.4,-0.4c0.9,-0.4 0.9,-0.4 0.5,-1.3c-2.9,-7 -7.2,-13 -13,-17.8c-9.4,-7.8 -20.1,-11.4 -32.4,-9.7c-5.3,0.7 -10.3,2.5 -14.9,5.2c-7.6,4.4 -13.4,10.5 -17.5,18.3c-0.7,1.4 -1.3,2.8 -1.9,4.2c-0.2,0.5 -0.2,0.9 0.5,1.1c0.2,0 0.5,0.3 0.5,0.4c0,0.9 0,1.7 0,2.7c-0.3,-0.1 -0.6,-0.1 -0.8,-0.2c-0.9,-0.3 -1.3,0 -1.5,0.9c-0.6,4.1 -0.9,8.2 -0.3,12.4c1.5,10.7 6.6,19.4 15,26.2c1.4,1.1 1.6,1 2,-0.8c0.2,-0.9 0.4,-1.8 0.5,-2.7c2,0.6 4,1.2 5.9,1.8c0,0.3 0,0.7 0,1c-0.1,1.7 -0.1,3.4 -0.2,5.1c0,0.8 0.3,1.1 0.9,1.4c7.3,3 14.8,4.2 22.6,3.3c4.3,-0.5 8.4,-1.7 12.4,-3.3c0.5,-0.2 0.7,-0.5 0.7,-1c-0.1,-1.4 -0.1,-2.8 -0.2,-4.3c0,-0.7 0,-1.4 0,-2.1c1.9,-0.6 3.9,-1.1 5.9,-1.7c0.2,1.1 0.4,2.1 0.6,3.1c0.3,1.2 0.7,1.3 1.6,0.6c4.6,-3.4 8.3,-7.7 11,-12.8c3.7,-7.2 5.3,-14.7 4.5,-22.6zm-7.2,-5.8c0,4.6 -3.8,8.2 -8.7,8.2c-4.6,0 -8.3,-3.7 -8.3,-8.2c0,-4.8 3.7,-8.6 8.5,-8.6c4.7,-0.1 8.5,3.9 8.5,8.6zm-26.3,-22.9c0.2,-0.2 0.5,-0.4 0.8,-0.4c0.8,0.2 1.6,0.4 2.4,0.7c4.7,1.6 8.8,4.2 12.4,7.6c0.1,0.1 0.2,0.2 0.4,0.4c-0.7,0.5 -1.4,0.9 -2.1,1.3c-0.1,0 -0.1,0 -0.2,0.1c-0.2,0.1 -0.5,-0.1 -0.6,-0.2c-1.6,-1.2 -3.1,-2.5 -4.7,-3.8c-0.3,-0.2 -0.7,-0.4 -1,-0.6c-1,-0.5 -1.8,-0.3 -2.3,0.7c-0.5,0.8 -0.6,1.7 -0.4,2.6c0.1,0.3 0.5,0.6 0.8,0.8c0.6,0.3 1.2,0.7 1.7,1c0.3,0.2 0.7,0.5 1,0.7c0.5,0.4 1,0.8 1.5,1.2l0.2,0.2c-2.7,2.4 -4.1,4.9 -4.8,6.7c-0.2,0.9 -0.5,1.8 -0.8,2.8c-1.1,0 -2.3,0 -3.4,0c-0.1,0 -0.3,-0.1 -0.4,-0.3c-0.2,-0.5 -0.3,-1 -0.4,-1.5c0,-0.1 0,-0.2 0.1,-0.3c0.8,-1.1 1.6,-2.1 2.5,-3.2c0,0 0,0 0,-0.1c1.4,-2 1.5,-6.3 1.5,-7c0,-0.1 0,-0.1 0,-0.1c-0.1,-3 -1.1,-5.8 -3.3,-8.2c-0.2,-0.2 -0.5,-0.4 -0.6,-0.7c-0.2,0.1 -0.3,-0.3 -0.3,-0.4zm5.6,27.8c-1.4,-0.5 -2.5,-0.8 -3.7,-1.2l0,-0.2c0.9,-0.1 1.8,-0.2 2.7,-0.4c0.1,0 0.2,0.1 0.3,0.2c0.2,0.5 0.4,0.9 0.7,1.6zm-20.4,-22.6c3.5,-5.1 10.3,-4.3 13.2,0.4c0.9,1.5 1.3,3 1.3,4.8c0,3 -1.3,5.4 -3.5,7.4c-2.2,1.9 -5.7,2.1 -8.2,0.5c-4,-2.6 -6,-8.4 -2.8,-13.1zm1.8,19.1c0,-0.3 -0.1,-0.6 -0.1,-1c3.2,1.2 6.3,1.2 9.5,0c0,0.9 -0.1,1.7 -0.2,2.5c0,1 0.2,2 0.8,2.9c0.1,0.2 0.1,0.6 -0.1,0.8c-1,1.4 -2.4,2.1 -4.1,2.3c-2.2,0.2 -4.2,0 -5.9,-1.6c-0.8,-0.8 -0.9,-1 -0.3,-2c0.7,-1.3 0.5,-2.6 0.4,-3.9zm-18.2,-17.1c3.9,-3.5 8.4,-6 13.5,-7.5c0.6,-0.2 1,-0.1 1.3,0.6c-0.4,0.5 -0.9,1 -1.3,1.5c-2.4,2.9 -3.2,6.2 -2.8,9.9c0.3,3.1 1.6,5.8 3.8,8.1c0.1,0.1 0.2,0.4 0.2,0.6c-0.1,0.5 -0.3,1 -0.5,1.6c-1.2,-0.1 -2.4,-0.1 -3.7,-0.2c-0.4,-3.9 -2.2,-7 -5.3,-9.6c0.9,-0.7 1.8,-1.5 2.8,-2.1c0.5,-0.4 1.1,-0.7 1.7,-1c0.5,-0.2 0.7,-0.6 0.6,-1.1c0,-0.5 -0.1,-1 -0.2,-1.4c-0.3,-1.4 -1.5,-2.1 -2.7,-1.2c-1.8,1.2 -3.4,2.6 -5.1,3.9c-0.3,0.2 -0.5,0.5 -0.8,0.7c-0.8,-0.5 -1.6,-1 -2.5,-1.6c0.2,-0.4 0.5,-0.8 1,-1.2zm12.4,19.2c0,0.1 0,0.1 0,0.2c-1,0.4 -2,0.8 -3.2,1.2c0.3,-0.6 0.4,-1.1 0.7,-1.5c0.1,-0.1 0.3,-0.3 0.4,-0.2c0.6,0 1.3,0.2 2.1,0.3zm-15.3,-12.2c4.6,0 8.3,4 8.4,8.7c0,3.6 -3.1,8.2 -8.4,8.1c-4.7,-0.1 -8.4,-3.6 -8.3,-8.2c0,-4.8 3.6,-8.6 8.3,-8.6zm1.3,26.4c0,0.1 0,0.2 0,0.2c-1,4.5 -1.9,8.9 -2.8,13.4c-6.1,-6.5 -8.6,-14.3 -8.5,-23c0.7,0.6 1.3,1.2 2,1.8c0.1,0.1 0.1,0.3 0.1,0.4c0,3.5 0.7,7 1.6,10.3c0.1,0.2 0.1,0.4 0.2,0.5c0.4,1.1 0.8,1.3 1.8,0.8c1,-0.5 1.9,-1 2.9,-1.5c0.4,-0.2 0.5,-0.5 0.4,-0.9c-0.3,-0.9 -0.6,-1.8 -0.9,-2.8c1.3,0.1 2.4,0.2 3.5,0.3c-0.2,0.2 -0.2,0.3 -0.3,0.5zm0.2,-4c-1.1,-0.2 -2.3,-0.3 -3.4,-0.4c-0.4,0 -0.6,-0.1 -0.7,-0.3c0,-0.1 0,-0.2 0,-0.4l5.6,0c0,0 0,0.2 -0.1,0.3c-0.1,0.2 -0.1,0.4 -0.2,0.5c-0.2,0.4 -0.4,0.4 -1.2,0.3zm7.1,15.7c-0.3,1.7 -0.5,3.4 -0.8,5.3c-1,-0.3 -2,-0.6 -2.9,-0.8c-0.6,-0.2 -1.2,-0.4 -1.8,-0.6c-0.2,-0.1 -0.4,-0.4 -0.4,-0.6c0.4,-2 0.8,-4 1.3,-6c1.3,0.5 2.6,1 3.8,1.4c0.8,0.2 0.9,0.5 0.8,1.3zm9,-0.6c-1.1,1 -1.5,2.3 -1.5,3.8c0,3.2 0,6.4 0,9.6l0,1.1c-1.2,-0.4 -2.2,-0.7 -3.2,-1.1c-0.2,-0.1 -0.4,-0.4 -0.4,-0.7c0.1,-3.7 0.2,-7.4 0.3,-11.1c0,-0.7 0.1,-1.3 0.1,-2l5.1,0c-0.1,0.1 -0.2,0.3 -0.4,0.4zm13.9,15.3c-2.7,0.5 -5.4,0.6 -8.1,0.4c-1,-0.1 -1.9,-0.2 -2.9,-0.4c-0.2,0 -0.5,-0.3 -0.5,-0.5c0,-3.6 0,-7.3 0,-10.9c0,-1.1 0.6,-1.7 1.4,-2.3c2.7,1.8 5.5,1.9 8.2,0.2c0.1,-0.1 0.3,-0.1 0.4,-0.1c0.6,0.5 1.3,0.9 1.4,1.8c0.1,3.9 0.1,7.8 0.1,11.8zm-8.7,-19.5c0,-1.6 1.4,-3 3,-2.9c1.7,0 3.1,1.4 3.1,3.1c0,1.7 -1.4,3 -3,2.9c-1.8,-0.1 -3.1,-1.3 -3.1,-3.1zm16.2,17.7c-1,0.4 -2.1,0.7 -3.4,1.1l0,-3.3c0,-1.9 0,-3.9 0,-5.8c0,-3.3 0,-3.3 -1.9,-6l5.1,0c0.1,0.7 0.2,1.4 0.2,2c0.1,3.8 0.3,7.6 0.4,11.4c-0.1,0.2 -0.3,0.5 -0.4,0.6zm1.7,-20.2c-0.2,-0.5 -0.4,-0.9 -1,-0.8c-0.6,0.1 -0.9,0.4 -0.9,1l0,1.8c-1.8,0 -3.5,0 -5.2,0c-0.2,0 -0.4,-0.3 -0.5,-0.6c-0.5,-2 -1.5,-3.5 -3.1,-4.7c-4.2,-2.9 -10,-0.8 -11.3,4.2c-0.1,0.3 -0.2,0.7 -0.3,1.1l-5.5,0c0,-0.6 0,-1.2 -0.1,-1.8c0,-0.5 -0.2,-1 -0.8,-1c-0.6,-0.1 -1,0.2 -1.1,0.8c-0.2,0.7 -0.4,1.4 -0.6,2.3c-1.9,-0.7 -3.7,-1.3 -5.5,-2.1c-0.2,-0.1 -0.3,-0.6 -0.2,-0.9c0.4,-1.7 0.7,-3.3 1.2,-4.9c0.3,-1.1 0.7,-2.2 1.1,-3.2c0.5,-1.4 1.5,-2.4 3,-2.9c2.2,-0.8 4.4,-1.5 6.6,-2.3c2,3.7 5.3,5.1 9.3,5.1c4,0 7.2,-1.4 9.4,-5c2.5,0.8 4.9,1.6 7.3,2.5c1.3,0.5 2,1.5 2.4,2.8c0.8,2.6 1.5,5.2 2.2,7.7c0.1,0.4 0.1,0.8 0.2,1.3c-1.9,0.7 -3.8,1.4 -5.8,2.1c-0.4,-1 -0.6,-1.8 -0.8,-2.5zm3.1,12.6c-0.3,-2.1 -0.5,-3.9 -0.8,-5.7c0,-0.2 0.1,-0.6 0.3,-0.7c1.4,-0.6 2.8,-1 4.3,-1.6c0.5,2.2 0.9,4.3 1.4,6.5c-1.7,0.4 -3.4,1 -5.2,1.5zm4.9,-22.2l5.5,0c0.1,0 0.1,0.1 0.2,0.1c-0.1,0.2 -0.3,0.6 -0.5,0.6c-1.6,0.2 -3.1,0.4 -4.8,0.5c-0.1,-0.3 -0.2,-0.8 -0.4,-1.2zm4.6,18.9c-1,-4.8 -1.9,-9.4 -2.9,-14.2c0.5,0 1.1,-0.1 1.6,-0.1l1.8,-0.1c-0.3,0.9 -0.5,1.6 -0.8,2.3c-0.4,1.1 -0.3,1.1 0.7,1.6c0.8,0.4 1.6,0.8 2.5,1.2c1,0.5 1.5,0.3 1.8,-0.8c0.5,-1.8 1,-3.6 1.3,-5.5c0.3,-1.8 0.4,-3.6 0.6,-5.5c0,-0.2 0.1,-0.3 0.2,-0.5c0.6,-0.6 1.1,-1.1 1.8,-1.8c0,9.1 -2.6,16.8 -8.6,23.4zm-6.1,-44.7c-1.6,-1.2 -3.1,-2.5 -4.7,-3.8c-0.3,-0.2 -0.7,-0.4 -1,-0.6c-1,-0.5 -1.8,-0.3 -2.3,0.7c-0.5,0.8 -0.6,1.7 -0.4,2.6c0.1,0.3 0.5,0.6 0.8,0.8c0.6,0.3 1.2,0.7 1.7,1c0.3,0.2 0.7,0.5 1,0.7c0.5,0.4 1,0.8 1.5,1.2l2,-1.2c0.6,-0.5 1.3,-0.9 2.1,-1.3c-0.2,0.2 -0.6,0 -0.7,-0.1z" class="st1"/>
    <circle id="svg_11" r="1.7" cy="55.911808" cx="141.100067" class="st1"/>
    <circle id="svg_12" r="1.7" cy="55.911808" cx="147.000067" class="st1"/>
    <path id="svg_13" d="m120.800067,141.511808c1.1,1.7 2.3,3.4 3.5,5.1c0.2,0.3 0.4,0.6 0.5,0.8c0.4,0.7 0.1,1.3 -0.7,1.4c-1.5,0.1 -3,0.1 -4.5,0c-0.4,0 -0.8,-0.5 -1.1,-0.8c-1,-1.5 -2,-3 -3,-4.6c-0.2,-0.4 -0.5,-0.5 -0.9,-0.5c-0.8,0 -1.5,0 -2.4,0c0,0.6 0,1.1 0,1.7c0,1 0,2.1 0,3.1c0,0.8 -0.4,1.1 -1.2,1.2c-1.2,0 -2.3,0.1 -3.5,0c-1,0 -1.3,-0.3 -1.3,-1.3c0,-6.1 0,-12.2 0,-18.3c0,-0.8 0.3,-1.2 1.1,-1.2c1,-0.1 2,-0.1 3,0c2.3,0 4.6,-0.1 6.9,0.1c3,0.2 5.2,1.8 6.2,4.6c1,2.7 0.8,5.3 -1.1,7.6c-0.5,0.3 -1,0.7 -1.5,1.1zm-8.6,-3.8c0.2,0 0.3,0.1 0.4,0.1c1.1,0 2.1,0 3.2,0c1.3,0 1.9,-0.7 2,-1.9c0.1,-1.1 -0.7,-2.2 -1.8,-2.3c-1.2,-0.1 -2.5,0 -3.8,0c0,1.4 0,2.7 0,4.1z" class="st1"/>
    <path id="svg_14" d="m174.500067,149.011808c-2.6,0 -4.9,-0.7 -7,-2.2c-1.4,-0.9 -1.5,-1.7 -0.6,-3.1c0.5,-0.7 1,-1.3 1.5,-1.9c0.4,-0.5 0.8,-0.6 1.4,-0.2c1.3,1.1 2.9,1.8 4.6,1.9c0.6,0.1 1.2,0 1.8,-0.2c0.5,-0.1 1,-0.4 0.9,-1c-0.1,-0.3 -0.4,-0.8 -0.7,-0.9c-0.8,-0.3 -1.7,-0.5 -2.5,-0.8c-1.3,-0.5 -2.7,-0.8 -3.9,-1.5c-3.9,-2.2 -3.4,-6.9 -1.3,-9.2c2,-2.2 4.6,-2.7 7.4,-2.5c2,0.1 3.9,0.7 5.6,1.9c1.3,0.9 1.3,1.4 0.4,2.7c-0.4,0.6 -0.8,1.1 -1.3,1.7c-0.7,0.8 -1,0.9 -2,0.4c-0.7,-0.3 -1.5,-0.8 -2.2,-1c-0.8,-0.2 -1.8,-0.2 -2.6,-0.1c-0.3,0 -0.7,0.5 -0.7,0.8s0.2,0.8 0.5,0.9c0.9,0.4 1.8,0.6 2.7,0.9c1.1,0.4 2.3,0.7 3.4,1.2c3.7,1.6 4.1,5.6 2.2,8.4c-1.4,2.1 -3.5,3.2 -6,3.5c-0.5,0.3 -1.1,0.3 -1.6,0.3z" class="st1"/>
    <g id="svg_15">
     <path id="svg_16" d="m109.200067,158.311808l-1,-1.4l-0.7,0l0,1.4l-0.8,0l0,-3.4l1.5,0c0.9,0 1.6,0.2 1.6,1c0,0.5 -0.4,0.8 -1,1l1.1,1.4c0.1,0 -0.7,0 -0.7,0zm-1.8,-1.8l0.7,0c0.7,0 1,-0.2 1,-0.6s-0.4,-0.6 -1,-0.6l-0.7,0c0,0 0,1.2 0,1.2z" class="st1"/>
     <path id="svg_17" d="m110.500067,156.611808c0,-1.1 0.8,-1.8 2,-1.8s2,0.7 2,1.8s-0.8,1.8 -2,1.8s-2,-0.7 -2,-1.8zm3.3,0c0,-0.8 -0.5,-1.3 -1.2,-1.3s-1.2,0.5 -1.2,1.3s0.5,1.3 1.2,1.3s1.2,-0.5 1.2,-1.3z" class="st1"/>
     <path id="svg_18" d="m115.500067,154.911808l1.4,0c0.9,0 1.6,0.2 1.6,0.8c0,0.3 -0.2,0.6 -0.6,0.7l0,0c0.5,0.1 0.9,0.3 0.9,0.8c0,0.7 -0.7,1 -1.8,1l-1.5,0l0,-3.3zm1.3,1.4c0.7,0 1,-0.2 1,-0.5c0,-0.4 -0.3,-0.5 -1,-0.5l-0.6,0l0,1l0.6,0zm0.1,1.6c0.7,0 1.1,-0.2 1.1,-0.6c0,-0.4 -0.4,-0.6 -1.1,-0.6l-0.7,0l0,1.2l0.7,0z" class="st1"/>
     <path id="svg_19" d="m119.400067,156.611808c0,-1.1 0.8,-1.8 2,-1.8s2,0.7 2,1.8s-0.8,1.8 -2,1.8s-2,-0.7 -2,-1.8zm3.2,0c0,-0.8 -0.5,-1.3 -1.2,-1.3s-1.2,0.5 -1.2,1.3s0.5,1.3 1.2,1.3s1.2,-0.5 1.2,-1.3z" class="st1"/>
     <path id="svg_20" d="m125.100067,155.411808l-1.3,0l0,-0.4l3.3,0l0,0.4l-1.4,0l0,2.9l-0.6,0l0,-2.9z" class="st1"/>
     <path id="svg_21" d="m129.100067,156.611808c0,-1.1 0.9,-1.8 2.1,-1.8c0.6,0 1,0.2 1.3,0.4l-0.4,0.3c-0.2,-0.2 -0.5,-0.3 -0.9,-0.3c-0.8,0 -1.3,0.5 -1.3,1.3c0,0.8 0.5,1.3 1.3,1.3c0.4,0 0.7,-0.1 1,-0.4l0.4,0.3c-0.4,0.3 -0.8,0.5 -1.4,0.5c-1.3,0.2 -2.1,-0.5 -2.1,-1.6z" class="st1"/>
     <path id="svg_22" d="m132.900067,156.611808c0,-1.1 0.8,-1.8 2,-1.8s2,0.7 2,1.8s-0.8,1.8 -2,1.8s-2,-0.7 -2,-1.8zm3.2,0c0,-0.8 -0.5,-1.3 -1.2,-1.3s-1.2,0.5 -1.2,1.3s0.5,1.3 1.2,1.3s1.2,-0.5 1.2,-1.3z" class="st1"/>
     <path id="svg_23" d="m137.800067,154.911808l0.7,0l1.5,2l0.5,0.7l0,0c0,-0.3 -0.1,-0.8 -0.1,-1.1l0,-1.6l0.7,0l0,3.4l-0.7,0l-1.5,-2l-0.5,-0.7l0,0c0,0.3 0.1,0.7 0.1,1.1l0,1.6l-0.7,0l0,-3.4l0,0z" class="st1"/>
     <path id="svg_24" d="m143.300067,155.411808l-1.3,0l0,-0.4l3.4,0l0,0.4l-1.3,0l0,2.9l-0.7,0l0,-2.9l-0.1,0z" class="st1"/>
     <path id="svg_25" d="m148.600067,158.311808l-1,-1.4l-0.7,0l0,1.4l-0.8,0l0,-3.4l1.5,0c0.9,0 1.7,0.2 1.7,1c0,0.5 -0.4,0.8 -1,1l1.1,1.4c0.1,0 -0.8,0 -0.8,0zm-1.7,-1.8l0.7,0c0.7,0 1,-0.2 1,-0.6s-0.4,-0.6 -1,-0.6l-0.7,0l0,1.2z" class="st1"/>
     <path id="svg_26" d="m150.000067,156.611808c0,-1.1 0.8,-1.8 2,-1.8c1.2,0 2,0.7 2,1.8s-0.8,1.8 -2,1.8s-2,-0.7 -2,-1.8zm3.2,0c0,-0.8 -0.5,-1.3 -1.2,-1.3c-0.8,0 -1.2,0.5 -1.2,1.3s0.5,1.3 1.2,1.3c0.7,0 1.2,-0.5 1.2,-1.3z" class="st1"/>
     <path id="svg_27" d="m154.900067,154.911808l0.7,0l0,2.9l1.9,0l0,0.4l-2.7,0l0,-3.3l0.1,0z" class="st1"/>
     <path id="svg_28" d="m159.400067,157.911808l0.4,-0.4c0.3,0.2 0.8,0.4 1.2,0.4c0.6,0 0.9,-0.2 0.9,-0.5c0,-0.3 -0.3,-0.4 -0.7,-0.6l-0.6,-0.2c-0.4,-0.1 -0.9,-0.4 -0.9,-0.9c0,-0.5 0.6,-0.9 1.5,-0.9c0.5,0 1,0.2 1.4,0.4l-0.4,0.3c-0.3,-0.2 -0.6,-0.3 -1,-0.3c-0.5,0 -0.8,0.2 -0.8,0.4c0,0.3 0.4,0.4 0.7,0.5l0.6,0.2c0.5,0.2 0.9,0.4 0.9,0.9c0,0.6 -0.6,1 -1.6,1c-0.6,0.2 -1.1,0 -1.6,-0.3z" class="st1"/>
     <path id="svg_29" d="m164.200067,157.011808l-1.4,-2.1l0.8,0l0.5,0.9c0.1,0.2 0.3,0.5 0.4,0.8l0,0c0.2,-0.3 0.3,-0.5 0.4,-0.8l0.5,-0.9l0.8,0l-1.4,2.1l0,1.3l-0.7,0l0,-1.3l0.1,0z" class="st1"/>
     <path id="svg_30" d="m166.400067,157.911808l0.4,-0.4c0.3,0.2 0.8,0.4 1.2,0.4c0.6,0 0.9,-0.2 0.9,-0.5c0,-0.3 -0.3,-0.4 -0.7,-0.6l-0.6,-0.2c-0.4,-0.1 -0.9,-0.4 -0.9,-0.9c0,-0.5 0.6,-0.9 1.5,-0.9c0.5,0 1,0.2 1.4,0.4l-0.4,0.3c-0.3,-0.2 -0.6,-0.3 -1,-0.3c-0.5,0 -0.8,0.2 -0.8,0.4c0,0.3 0.4,0.4 0.7,0.5l0.6,0.2c0.5,0.2 0.9,0.4 0.9,0.9c0,0.6 -0.6,1 -1.6,1c-0.6,0.2 -1.1,0 -1.6,-0.3z" class="st1"/>
     <path id="svg_31" d="m171.300067,155.411808l-1.3,0l0,-0.4l3.4,0l0,0.4l-1.3,0l0,2.9l-0.7,0c-0.1,0 -0.1,-2.9 -0.1,-2.9z" class="st1"/>
     <path id="svg_32" d="m174.200067,154.911808l2.7,0l0,0.4l-2,0l0,0.9l1.7,0l0,0.4l-1.7,0l0,1.1l2.1,0l0,0.4l-2.8,0l0,-3.2z" class="st1"/>
     <path id="svg_33" d="m177.900067,154.911808l0.8,0l0.8,1.7c0.1,0.2 0.2,0.5 0.3,0.7l0,0c0.1,-0.2 0.2,-0.5 0.3,-0.7l0.8,-1.7l0.8,0l0,3.4l-0.7,0l0,-1.7c0,-0.3 0.1,-0.8 0.1,-1.1l0,0l-0.4,0.8l-0.8,1.6l-0.4,0l-0.8,-1.6l-0.4,-0.8l0,0c0,0.3 0.1,0.8 0.1,1.1l0,1.7l-0.7,0l0,-3.4l0.2,0z" class="st1"/>
    </g>
    <path id="svg_34" d="m166.400067,57.911808l-2.5,1.5c0.6,-0.5 1.3,-0.9 2.1,-1.3c0.1,0 0.1,0 0.2,-0.1c0,0 0.1,-0.1 0.2,-0.1z" class="st1"/>
    <path id="svg_35" d="m119.500067,88.911808c0,-0.1 0.1,-0.3 0.1,-0.4c-1.1,-0.1 -2.2,-0.2 -3.5,-0.3c0,0 -0.5,-2.9 -0.6,-4c0.1,0.2 0.3,0.3 0.7,0.4c1.1,0.1 2.3,0.2 3.4,0.4c0.8,0.1 1,0.2 1.2,-0.3c0.1,-0.2 -1,3 -1.3,4.2z" class="st0"/>
    <path id="svg_36" d="m172.700067,83.811808c-0.1,2.1 -0.7,4.3 -0.7,4.3l-1.8,0.1l-1.7,0.2c-0.3,-1.3 -1.1,-3.5 -1.1,-3.5c1.6,-0.2 3.2,-0.3 4.8,-0.5c0.1,0 0.3,-0.4 0.5,-0.6z" class="st0"/>
    <g id="svg_37">
     <path id="svg_38" d="m163.500067,68.011808l1.1,0l0,0.2l-0.8,0l0,0.6l0.7,0l0,0.2l-0.7,0l0,0.8l-0.3,0c0,0 0,-1.8 0,-1.8z" class="st1"/>
     <path id="svg_39" d="m165.900067,69.911808l-0.4,-0.7l-0.3,0l0,0.7l-0.3,0l0,-1.9l0.6,0c0.4,0 0.7,0.1 0.7,0.5c0,0.3 -0.2,0.5 -0.4,0.5l0.4,0.8l-0.3,0.1l0,0zm-0.7,-1l0.3,0c0.3,0 0.4,-0.1 0.4,-0.3s-0.2,-0.3 -0.4,-0.3l-0.3,0l0,0.6z" class="st1"/>
     <path id="svg_40" d="m166.400067,68.911808c0,-0.6 0.3,-1 0.8,-1s0.8,0.4 0.8,1s-0.3,1 -0.8,1s-0.8,-0.4 -0.8,-1zm1.3,0c0,-0.4 -0.2,-0.7 -0.5,-0.7s-0.5,0.3 -0.5,0.7c0,0.4 0.2,0.7 0.5,0.7s0.5,-0.2 0.5,-0.7z" class="st1"/>
     <path id="svg_41" d="m168.400067,68.011808l0.3,0l0.6,1.1l0.2,0.4l0,0c0,-0.2 0,-0.4 0,-0.6l0,-0.9l0.3,0l0,1.8l-0.3,0l-0.6,-1.1l-0.2,-0.3l0,0c0,0.2 0,0.4 0,0.6l0,0.9l-0.3,0l0,-1.9z" class="st1"/>
     <path id="svg_42" d="m170.600067,68.311808l-0.5,0l0,-0.2l1.4,0l0,0.2l-0.5,0l0,1.6l-0.3,0l0,-1.6l-0.1,0z" class="st1"/>
     <path id="svg_43" d="m172.300067,68.011808l1.1,0l0,0.2l-0.8,0l0,0.5l0.7,0l0,0.2l-0.7,0l0,0.6l0.8,0l0,0.2l-1.1,0c0,0.2 0,-1.7 0,-1.7z" class="st1"/>
     <path id="svg_44" d="m173.800067,68.011808l0.3,0l0.6,1.1l0.2,0.4l0,0c0,-0.2 0,-0.4 0,-0.6l0,-0.9l0.3,0l0,1.8l-0.3,0l-0.6,-1.1l-0.2,-0.3l0,0c0,0.2 0,0.4 0,0.6l0,0.9l-0.3,0l0,-1.9l0,0z" class="st1"/>
     <path id="svg_45" d="m175.700067,68.011808l0.4,0c0.6,0 0.9,0.3 0.9,0.9s-0.3,0.9 -0.9,0.9l-0.5,0l0.1,-1.8l0,0zm0.4,1.6c0.4,0 0.6,-0.2 0.6,-0.7c0,-0.5 -0.2,-0.7 -0.6,-0.7l-0.2,0l0,1.4l0.2,0z" class="st1"/>
    </g>
    <g id="svg_46">
     <path id="svg_47" d="m165.400067,74.811808l0.3,-0.4c0.3,0.3 0.6,0.4 1,0.4c0.4,0 0.7,-0.2 0.7,-0.5c0,-0.3 -0.2,-0.4 -0.6,-0.6l-0.5,-0.2c-0.3,-0.2 -0.7,-0.4 -0.7,-1c0,-0.6 0.5,-1 1.2,-1c0.4,0 0.8,0.2 1.1,0.5l-0.4,0.4c-0.2,-0.2 -0.5,-0.3 -0.8,-0.3c-0.4,0 -0.6,0.2 -0.6,0.5c0,0.3 0.3,0.4 0.6,0.5l0.5,0.2c0.4,0.2 0.7,0.5 0.7,1c0,0.6 -0.5,1 -1.3,1c-0.4,0 -0.9,-0.2 -1.2,-0.5z" class="st1"/>
     <path id="svg_48" d="m168.600067,71.611808l0.9,0c1.1,0 1.8,0.6 1.8,1.8s-0.6,1.8 -1.7,1.8l-1,0l0,-3.6zm0.9,3.2c0.8,0 1.2,-0.5 1.2,-1.4c0,-0.9 -0.4,-1.3 -1.2,-1.3l-0.3,0l0,2.7l0.3,0z" class="st1"/>
     <path id="svg_49" d="m172.100067,71.611808l0.6,0l0,1.7l0,0l1.4,-1.7l0.6,0l-1.1,1.4l1.3,2.2l-0.6,0l-1,-1.8l-0.6,0.7l0,1.1l-0.6,0l0,-3.6l0,0z" class="st1"/>
    </g>
    <g id="svg_50">
     <path id="svg_51" d="m112.500067,68.911808c0,-0.6 0.4,-1 0.8,-1c0.2,0 0.4,0.1 0.5,0.2l-0.2,0.3c-0.1,-0.1 -0.2,-0.2 -0.4,-0.2c-0.3,0 -0.5,0.3 -0.5,0.7c0,0.4 0.2,0.7 0.5,0.7c0.2,0 0.3,-0.1 0.4,-0.2l0.2,0.2c-0.1,0.2 -0.3,0.3 -0.6,0.3c-0.4,0 -0.7,-0.4 -0.7,-1z" class="st1"/>
     <path id="svg_52" d="m114.000067,68.911808c0,-0.6 0.3,-1 0.8,-1s0.8,0.4 0.8,1s-0.3,1 -0.8,1s-0.8,-0.4 -0.8,-1zm1.3,0c0,-0.4 -0.2,-0.7 -0.5,-0.7s-0.5,0.3 -0.5,0.7c0,0.4 0.2,0.7 0.5,0.7s0.5,-0.2 0.5,-0.7z" class="st1"/>
     <path id="svg_53" d="m116.000067,68.011808l0.3,0l0.6,1.1l0.2,0.4l0,0c0,-0.2 0,-0.4 0,-0.6l0,-0.9l0.3,0l0,1.8l-0.3,0l-0.6,-1.1l-0.3,-0.3l0,0c0,0.2 0,0.4 0,0.6l0,0.9l-0.3,0l0.1,-1.9l0,0z" class="st1"/>
     <path id="svg_54" d="m118.200067,68.311808l-0.5,0l0,-0.2l1.4,0l0,0.2l-0.5,0l0,1.6l-0.3,0c-0.1,-0.1 -0.1,-1.6 -0.1,-1.6z" class="st1"/>
     <path id="svg_55" d="m120.300067,69.911808l-0.4,-0.7l-0.3,0l0,0.7l-0.3,0l0,-1.9l0.6,0c0.4,0 0.7,0.1 0.7,0.5c0,0.3 -0.1,0.5 -0.4,0.5l0.5,0.8l-0.4,0.1l0,0zm-0.7,-1l0.3,0c0.3,0 0.4,-0.1 0.4,-0.3s-0.1,-0.3 -0.4,-0.3l-0.3,0l0,0.6z" class="st1"/>
     <path id="svg_56" d="m120.900067,68.911808c0,-0.6 0.3,-1 0.8,-1s0.8,0.4 0.8,1s-0.3,1 -0.8,1s-0.8,-0.4 -0.8,-1zm1.3,0c0,-0.4 -0.2,-0.7 -0.5,-0.7s-0.6,0.3 -0.6,0.7c0,0.4 0.2,0.7 0.5,0.7s0.6,-0.2 0.6,-0.7z" class="st1"/>
     <path id="svg_57" d="m122.800067,68.011808l0.3,0l0,1.6l0.8,0l0,0.2l-1.1,0c0,0.1 0,-1.8 0,-1.8z" class="st1"/>
    </g>
    <g id="svg_58">
     <path id="svg_59" d="m115.300067,74.211808l-1.3,0l-0.3,1l-0.6,0l1.2,-3.6l0.7,0l1.2,3.6l-0.6,0l-0.3,-1zm-0.2,-0.4l-0.1,-0.5c-0.1,-0.4 -0.2,-0.8 -0.3,-1.2l0,0c-0.1,0.4 -0.2,0.8 -0.3,1.2l-0.1,0.5l0.8,0z" class="st1"/>
     <path id="svg_60" d="m116.700067,71.611808l1.1,0c0.8,0 1.4,0.3 1.4,1.1c0,0.8 -0.6,1.2 -1.4,1.2l-0.5,0l0,1.4l-0.6,0l0,-3.7l0,0zm1,1.8c0.6,0 0.9,-0.2 0.9,-0.7s-0.3,-0.6 -0.9,-0.6l-0.5,0l0,1.3l0.5,0z" class="st1"/>
     <path id="svg_61" d="m119.900067,71.611808l1.1,0c0.8,0 1.4,0.3 1.4,1.1c0,0.8 -0.6,1.2 -1.4,1.2l-0.5,0l0,1.4l-0.6,0l0,-3.7l0,0zm1,1.8c0.6,0 0.9,-0.2 0.9,-0.7s-0.3,-0.6 -0.9,-0.6l-0.5,0l0,1.3l0.5,0z" class="st1"/>
    </g>
    <path id="svg_62" d="m165.400067,143.811808c-0.1,-0.1 -0.2,-0.2 -0.4,-0.3c-0.8,-0.6 -1.7,-1.2 -2.6,-1.9c-0.5,-0.4 -0.9,-0.3 -1.4,0.1c-1.6,1.7 -4.5,1.9 -6.4,0.5c-1.9,-1.4 -2.5,-4.2 -1.4,-6.3c1.5,-2.8 5,-3.5 7.7,-1.5c0.5,0.4 0.9,0.4 1.5,0c0.9,-0.7 1.8,-1.3 2.6,-1.9c0.1,-0.1 0.1,-0.1 0.2,-0.1c0.8,-0.6 0.8,-0.9 0,-1.7c-0.2,-0.2 -0.3,-0.3 -0.5,-0.4c-2.3,-1.8 -4.8,-2.8 -7.6,-2.7c-0.1,0 -0.2,0 -0.4,0c-2.5,0 -4.8,0.9 -6.5,2.5c-0.2,0.2 -0.4,0.3 -0.6,0.5c-0.2,0.2 -0.5,0.5 -0.7,0.8c-0.1,0.1 -0.2,0.3 -0.3,0.4c-0.1,0.1 -0.2,0.3 -0.3,0.4c-0.2,0.3 -0.3,0.6 -0.5,0.9c-0.5,0.9 -0.8,1.8 -1,2.8c-0.1,0.7 -0.2,1.4 -0.2,2.2c0,0.7 0.1,1.4 0.2,2.1c0.7,3.6 3.2,6.5 6.4,7.8c0,0 0.1,0 0.1,0c1.1,0.4 2.2,0.6 3.4,0.6l0,0c0.2,0 0.3,0 0.5,0c3.2,0.1 5.8,-1.2 7.9,-3.5c0.7,-0.5 0.8,-0.8 0.3,-1.3z" class="st1"/>
    <path id="svg_63" d="m135.100067,132.511808c-4.8,0 -8.6,3.7 -8.6,8.3s3.9,8.3 8.6,8.3c4.8,0 8.7,-3.7 8.7,-8.3s-3.9,-8.3 -8.7,-8.3zm0,12.6c-2.5,0 -4.5,-1.9 -4.5,-4.3s2,-4.3 4.5,-4.3c2.5,0 4.5,1.9 4.5,4.3s-2,4.3 -4.5,4.3z" class="st1"/>
   </g>
  </g>
 </g>
</svg>