<svg width="94" height="122" xmlns="http://www.w3.org/2000/svg">
 <style type="text/css">.st0{fill:#59666E;}
	.st1{fill:#1E353A;}
	.st2{fill:none;}</style>

 <g>
  <title>background</title>
  <rect fill="none" id="canvas_background" height="402" width="582" y="-1" x="-1"/>
 </g>
 <g>
  <title>Layer 1</title>
  <g id="图层_2_00000040548182129776856420000013977586835078360452_"/>
  <g id="svg_1">
   <g id="图层_1_00000103232212798426429640000006909906054486944915_">
    <g id="svg_2">
     <path id="svg_3" d="m58.1,26.2c0,0 1.7,0.9 2.7,2.2l1.6,-1.1c0,0 0,-0.8 0,-1.8c0,0 -1.6,-2 -3.3,-3.1l-1,3.8z" class="st0"/>
     <path id="svg_4" d="m36.2,26.2c0,0 -1.7,0.9 -2.7,2.2l-1.6,-1.1c0,0 0,-0.8 0,-1.8c0,0 1.6,-2 3.3,-3.1l1,3.8z" class="st0"/>
     <path id="svg_5" d="m68.1,19.8c-1.5,-1.2 -3,-2.5 -4.6,-3.7c-0.3,-0.2 -0.6,-0.4 -1,-0.6c-0.9,-0.5 -1.7,-0.3 -2.3,0.7c-0.5,0.7 -0.6,1.6 -0.4,2.5c0,0.3 0.4,0.6 0.8,0.8c0.6,0.3 1.2,0.7 1.7,1c0.3,0.2 0.6,0.5 1,0.7c0.5,0.4 1,0.8 1.5,1.2l0.2,0.2l1.7,-1.4c0.6,-0.4 1.3,-0.8 2.1,-1.2c-0.2,0.1 -0.5,-0.1 -0.7,-0.2zm-3.4,2.7l0.2,0.2c0.6,-0.5 1.1,-1 1.8,-1.4l-2,1.2zm23.7,16.3c-0.1,-1.3 -0.3,-2.6 -0.5,-3.9c-0.1,-0.7 -0.5,-0.9 -1.1,-0.7c-0.3,0.1 -0.6,0.1 -1.1,0.3c0,-1 0,-1.8 0,-2.7c0,-0.1 0.2,-0.3 0.4,-0.4c0.9,-0.4 0.9,-0.4 0.5,-1.3c-2.8,-7 -7.1,-13 -12.9,-17.7c-9.4,-7.7 -20.1,-11.2 -32.2,-9.5c-5.3,0.7 -10.2,2.4 -14.9,5.1c-7.5,4.3 -13.3,10.5 -17.4,18.1c-0.7,1.4 -1.3,2.8 -1.9,4.2c-0.2,0.5 -0.2,0.9 0.5,1.1c0.2,0 0.5,0.3 0.5,0.4c0,0.9 0,1.7 0,2.7c-0.4,-0.1 -0.6,-0.2 -0.8,-0.2c-0.9,-0.3 -1.3,0 -1.5,0.9c-0.6,4 -0.9,8.1 -0.3,12.3c1.5,10.7 6.5,19.3 14.9,26c1.4,1.1 1.6,1 1.9,-0.8c0.2,-0.9 0.4,-1.8 0.6,-2.7c2,0.6 3.9,1.2 5.9,1.8c0,0.3 0,0.6 0,1c-0.1,1.7 -0.1,3.3 -0.2,5c0,0.8 0.3,1.1 0.9,1.4c7.2,3 14.7,4.2 22.5,3.2c4.3,-0.5 8.4,-1.7 12.4,-3.3c0.5,-0.2 0.7,-0.5 0.7,-1c-0.3,-1.5 -0.3,-2.9 -0.4,-4.3c0,-0.7 0,-1.4 0,-2.1c2,-0.5 3.9,-1.1 5.8,-1.7c0.2,1 0.4,2.1 0.6,3.1c0.3,1.2 0.7,1.4 1.7,0.6c4.5,-3.4 8.2,-7.6 10.9,-12.7c3.7,-6.9 5.3,-14.3 4.5,-22.2zm-7.2,-5.8c0,4.5 -3.8,8.1 -8.6,8.1c-4.6,0 -8.2,-3.7 -8.2,-8.2c0,-4.8 3.7,-8.5 8.4,-8.5c4.7,0 8.5,3.9 8.4,8.6zm-26,-22.7c0.2,-0.2 0.5,-0.4 0.7,-0.3c0.8,0.2 1.6,0.4 2.4,0.7c4.7,1.5 8.8,4.1 12.3,7.5c0.1,0.1 0.2,0.2 0.4,0.4c-0.7,0.5 -1.4,0.9 -2.1,1.3c0,0 -0.1,0 -0.1,0.1c-0.2,0.1 -0.5,-0.1 -0.7,-0.2c-1.5,-1.2 -3,-2.5 -4.6,-3.7c-0.3,-0.2 -0.6,-0.4 -1,-0.6c-0.9,-0.5 -1.7,-0.3 -2.3,0.7c-0.5,0.7 -0.6,1.6 -0.4,2.5c0,0.3 0.4,0.6 0.8,0.8c0.6,0.3 1.2,0.7 1.7,1c0.3,0.2 0.6,0.5 1,0.7c0.5,0.4 1,0.8 1.5,1.2l0.2,0.2c-2.8,2.4 -4.1,4.9 -4.8,6.7c-0.3,0.9 -0.5,1.8 -0.8,2.8c-1.1,0 -2.3,0 -3.4,0c-0.1,0 -0.3,-0.1 -0.4,-0.3c-0.2,-0.5 -0.3,-1 -0.4,-1.4c0,-0.1 0,-0.2 0.1,-0.3c0.8,-1.1 1.6,-2.2 2.4,-3.3c0,0 0,0 0,-0.1c1.4,-2 1.5,-6.3 1.5,-7c0,-0.1 0,-0.1 0,-0.1c0,-2.9 -1.1,-5.6 -3.2,-8c-0.2,-0.2 -0.5,-0.4 -0.7,-0.7c-0.1,-0.2 -0.2,-0.5 -0.1,-0.6zm5.5,27.6c-1.4,-0.5 -2.5,-0.9 -3.6,-1.3l0,-0.2c0.9,-0.1 1.7,-0.2 2.6,-0.3c0.1,0 0.3,0.1 0.3,0.2c0.2,0.5 0.4,0.9 0.7,1.6zm-20.2,-22.5c3.4,-5.1 10.3,-4.2 13.1,0.4c0.9,1.4 1.3,3 1.3,4.7c0,3 -1.3,5.4 -3.5,7.3c-2.2,2 -5.7,2.2 -8.1,0.7c-4.1,-2.6 -6,-8.4 -2.8,-13.1zm1.8,19c0,-0.3 -0.1,-0.6 -0.1,-1c3.2,1.2 6.3,1.1 9.4,0c0,0.9 -0.1,1.7 -0.1,2.4c0,1 0.2,2 0.8,2.9c0.1,0.2 0.1,0.6 -0.1,0.8c-1,1.4 -2.4,2.1 -4.1,2.3c-2.2,0.2 -4.2,0 -5.9,-1.6c-0.8,-0.8 -0.9,-1 -0.3,-2c0.6,-1.2 0.5,-2.5 0.4,-3.8zm-18.2,-17c3.9,-3.4 8.4,-5.9 13.4,-7.4c0.6,-0.2 1,-0.1 1.3,0.6c-0.4,0.5 -0.9,1 -1.3,1.5c-2.5,2.9 -3.2,6.2 -2.9,9.8c0.3,3.2 1.6,5.8 3.8,8.1c0.1,0.1 0.2,0.4 0.2,0.6c-0.1,0.5 -0.3,1 -0.5,1.6c-1.2,0 -2.4,-0.1 -3.7,-0.1c-0.4,-3.9 -2.1,-7 -5.3,-9.6c1,-0.7 1.9,-1.4 2.8,-2.1c0.5,-0.4 1.1,-0.7 1.6,-1c0.5,-0.3 0.7,-0.6 0.6,-1.1c0,-0.5 -0.1,-1 -0.2,-1.4c-0.3,-1.4 -1.5,-2 -2.7,-1.2c-1.6,1.1 -3.3,2.5 -5,3.8c-0.2,0.2 -0.5,0.5 -0.8,0.7c-0.8,-0.5 -1.6,-1 -2.5,-1.6c0.4,-0.4 0.8,-0.8 1.2,-1.2zm12.3,19.1c0,0.1 0,0.1 0,0.2c-1,0.4 -2,0.8 -3.2,1.2c0.3,-0.6 0.4,-1.1 0.6,-1.5c0.1,-0.1 0.3,-0.3 0.4,-0.2c0.8,0 1.5,0.2 2.2,0.3zm-15.1,-12.1c4.5,0 8.3,4 8.3,8.6c0,3.5 -3.1,8.2 -8.4,8.1c-4.6,-0.1 -8.2,-3.6 -8.2,-8.1c0,-4.9 3.6,-8.6 8.3,-8.6zm1.3,26.1c0,0.1 0,0.1 0,0.2c-1,4.5 -1.9,8.9 -2.9,13.3c-6,-6.5 -8.6,-14.2 -8.4,-22.9c0.7,0.7 1.3,1.3 1.9,1.9c0.1,0 0.1,0.2 0.1,0.4c0,3.5 0.7,6.9 1.6,10.3c0,0.2 0.1,0.4 0.2,0.5c0.3,1 0.8,1.2 1.8,0.8c1,-0.5 1.9,-1 2.9,-1.4c0.4,-0.3 0.5,-0.6 0.3,-1c-0.3,-0.9 -0.5,-1.8 -0.9,-2.8c1.3,0.1 2.4,0.2 3.5,0.3c0,0.2 -0.1,0.3 -0.1,0.4zm0.2,-3.9c-1.2,-0.2 -2.3,-0.3 -3.4,-0.4c-0.4,0 -0.6,-0.1 -0.7,-0.3c0,-0.1 0,-0.2 0,-0.4l5.5,0c0,0 0,0.2 -0.1,0.3c0,0.2 -0.1,0.3 -0.1,0.5c-0.2,0.5 -0.4,0.4 -1.2,0.3zm7,15.6c-0.3,1.6 -0.5,3.3 -0.8,5.2c-1,-0.3 -1.9,-0.5 -2.8,-0.8c-0.6,-0.2 -1.3,-0.4 -1.9,-0.6c-0.1,-0.1 -0.4,-0.4 -0.3,-0.6c0.4,-2 0.8,-3.9 1.3,-6c1.3,0.5 2.5,1 3.8,1.4c0.7,0.3 0.8,0.6 0.7,1.4zm9,-0.6c-1.1,1 -1.5,2.3 -1.5,3.8c0,3.2 0,6.4 0,9.6l0,1c-1.2,-0.4 -2.3,-0.7 -3.3,-1.1c-0.1,-0.1 -0.3,-0.4 -0.3,-0.7c0.1,-3.7 0.2,-7.4 0.3,-11.1c0,-0.7 0.1,-1.3 0.1,-2l5.1,0c-0.2,0.2 -0.3,0.4 -0.4,0.5zm13.7,15.2c-2.7,0.5 -5.4,0.6 -8,0.4c-0.9,-0.1 -1.9,-0.2 -2.8,-0.4c-0.2,0 -0.5,-0.3 -0.5,-0.5c0,-3.6 0,-7.2 0,-10.8c0,-1.1 0.6,-1.7 1.4,-2.3c2.7,1.8 5.4,1.9 8.2,0.2c0.1,-0.1 0.3,-0.1 0.4,-0.1c0.6,0.4 1.3,0.9 1.4,1.7c0,4 -0.1,7.8 -0.1,11.8zm-8.6,-19.4c0,-1.6 1.4,-2.9 3,-2.9c1.7,0 3.1,1.4 3.1,3.1c0,1.6 -1.4,2.9 -3,2.9c-1.8,-0.1 -3.1,-1.3 -3.1,-3.1zm16.1,17.6c-1,0.4 -2.1,0.7 -3.4,1.1l0,-3.3c0,-1.9 0,-3.8 0,-5.8c0,-3.3 0,-3.3 -1.9,-5.9l5,0c0.1,0.7 0.2,1.4 0.2,2c0.1,3.8 0.3,7.5 0.4,11.3c0,0.2 -0.2,0.5 -0.3,0.6zm1.7,-20c-0.1,-0.5 -0.4,-0.9 -1,-0.8s-0.9,0.4 -0.9,1l0,1.8c-1.8,0 -3.5,0 -5.1,0c-0.2,0 -0.4,-0.3 -0.5,-0.6c-0.4,-2 -1.4,-3.5 -3.1,-4.7c-4.2,-2.9 -10,-0.8 -11.2,4.2c-0.1,0.3 -0.2,0.7 -0.3,1.1l-5.5,0c0,-0.6 0,-1.2 -0.1,-1.7c0,-0.5 -0.2,-0.9 -0.8,-1c-0.6,-0.2 -0.9,0.1 -1.1,0.7c-0.2,0.7 -0.4,1.4 -0.6,2.2c-1.9,-0.7 -3.7,-1.3 -5.4,-2c-0.2,-0.1 -0.3,-0.7 -0.2,-0.9c0.3,-1.7 0.7,-3.3 1.1,-4.9c0.3,-1.1 0.7,-2.1 1.1,-3.2c0.5,-1.4 1.5,-2.4 3,-2.9c2.1,-0.8 4.3,-1.6 6.5,-2.3c2,3.7 5.3,5 9.2,5s7.2,-1.4 9.3,-5c2.5,0.9 4.9,1.6 7.3,2.5c1.3,0.4 2,1.5 2.3,2.8c0.8,2.5 1.4,5.1 2.2,7.7c0.1,0.3 0.1,0.7 0.2,1.2c-1.9,0.7 -3.8,1.4 -5.7,2.1c-0.3,-0.9 -0.5,-1.6 -0.7,-2.3zm3.1,12.4c-0.3,-2 -0.5,-3.8 -0.8,-5.7c0,-0.2 0.1,-0.6 0.3,-0.7c1.4,-0.5 2.8,-1 4.3,-1.5c0.4,2.1 0.9,4.2 1.4,6.4c-1.8,0.5 -3.5,1 -5.2,1.5zm4.9,-22l5.5,0c0.1,0 0.1,0.1 0.2,0.1c-0.2,0.2 -0.4,0.6 -0.6,0.6c-1.5,0.2 -3.1,0.4 -4.7,0.6c-0.1,-0.4 -0.3,-0.9 -0.4,-1.3zm4.5,18.8c-1,-4.7 -1.9,-9.4 -2.9,-14.1c0.5,0 1,-0.1 1.6,-0.1l1.8,-0.1c-0.3,0.8 -0.6,1.5 -0.8,2.3c-0.4,1 -0.3,1.1 0.6,1.6c0.8,0.3 1.7,0.8 2.5,1.2c1,0.5 1.4,0.3 1.8,-0.8c0.5,-1.8 1,-3.6 1.3,-5.4c0.3,-1.8 0.4,-3.6 0.6,-5.4c0,-0.2 0.1,-0.3 0.2,-0.4c0.5,-0.7 1.1,-1.2 1.8,-1.9c0.1,8.9 -2.6,16.5 -8.5,23.1zm-6.1,-44.4c-1.5,-1.2 -3,-2.5 -4.6,-3.7c-0.3,-0.2 -0.6,-0.4 -1,-0.6c-0.9,-0.5 -1.7,-0.3 -2.3,0.7c-0.5,0.7 -0.6,1.6 -0.4,2.5c0,0.3 0.4,0.6 0.8,0.8c0.6,0.3 1.2,0.7 1.7,1c0.3,0.2 0.6,0.5 1,0.7c0.5,0.4 1,0.8 1.5,1.2l1.9,-1.2c0.6,-0.4 1.3,-0.8 2.1,-1.2c-0.2,0.1 -0.5,-0.1 -0.7,-0.2z" class="st1"/>
     <circle id="svg_6" r="1.7" cy="17.8" cx="44" class="st1"/>
     <circle id="svg_7" r="1.7" cy="17.8" cx="49.8" class="st1"/>
     <path id="svg_8" d="m23.9,102.8c1.1,1.7 2.3,3.3 3.4,5c0.2,0.3 0.4,0.5 0.5,0.8c0.4,0.8 0.1,1.4 -0.6,1.4c-1.5,0.1 -3,0.1 -4.5,0c-0.4,0 -0.8,-0.5 -1.1,-0.8c-1,-1.5 -2,-3 -3,-4.5c-0.2,-0.4 -0.5,-0.5 -0.9,-0.5c-0.8,0 -1.5,0 -2.4,0c0,0.6 0,1.1 0,1.7c0,1 0,2.1 0,3.1c0,0.8 -0.4,1.1 -1.2,1.2c-1.2,0 -2.3,0 -3.4,0c-1,0 -1.3,-0.3 -1.3,-1.3c0,-6.1 0,-12.1 0,-18.2c0,-0.8 0.3,-1.2 1.1,-1.2c1,-0.1 2,0 2.9,0c2.3,0 4.6,0 6.8,0.1c2.9,0.2 5.1,1.8 6.2,4.6c1,2.6 0.8,5.2 -1.1,7.5c-0.4,0.3 -0.9,0.7 -1.4,1.1zm-8.6,-3.7c0.2,0 0.3,0 0.4,0c1.1,0 2.1,0 3.1,0c1.3,0 1.9,-0.6 2,-1.8c0.1,-1.2 -0.6,-2.2 -1.8,-2.3c-1.2,-0.1 -2.5,0 -3.8,0c0.1,1.3 0.1,2.7 0.1,4.1z" class="st1"/>
     <path id="svg_9" d="m77.1,110.3c-2.5,0 -4.9,-0.7 -7,-2.1c-1.4,-0.9 -1.5,-1.7 -0.6,-3c0.5,-0.7 1,-1.3 1.5,-1.9c0.4,-0.5 0.8,-0.6 1.4,-0.2c1.3,1 2.8,1.8 4.6,1.9c0.6,0 1.2,0 1.8,-0.2c0.5,-0.1 1,-0.4 0.9,-1c-0.1,-0.3 -0.4,-0.8 -0.7,-0.9c-0.8,-0.3 -1.6,-0.5 -2.5,-0.8c-1.3,-0.5 -2.7,-0.8 -3.9,-1.5c-3.8,-2.1 -3.2,-6.8 -1.1,-9c2,-2.1 4.6,-2.7 7.3,-2.5c2,0.1 3.9,0.7 5.6,1.9c1.3,0.9 1.3,1.4 0.4,2.6c-0.5,0.6 -0.9,1.2 -1.3,1.7c-0.7,0.8 -1,0.9 -2,0.4c-0.7,-0.3 -1.4,-0.8 -2.2,-1c-0.8,-0.1 -1.7,-0.1 -2.6,0c-0.3,0 -0.7,0.5 -0.7,0.7s0.2,0.8 0.5,0.9c0.8,0.4 1.8,0.7 2.7,0.9c1.1,0.4 2.3,0.7 3.4,1.2c3.6,1.6 4,5.6 2.1,8.3c-1.4,2.1 -3.5,3.1 -5.9,3.4c-0.6,0.1 -1.1,0.1 -1.7,0.2z" class="st1"/>
     <g id="svg_10">
      <path id="svg_11" d="m12.4,119.5l-1,-1.4l-0.8,0l0,1.4l-0.7,0l0,-3.4l1.5,0c0.9,0 1.6,0.2 1.6,1c0,0.5 -0.4,0.8 -1,1l1.1,1.4c0.1,0 -0.7,0 -0.7,0zm-1.8,-1.8l0.7,0c0.7,0 1,-0.2 1,-0.6s-0.4,-0.5 -1,-0.5l-0.7,0l0,1.1z" class="st1"/>
      <path id="svg_12" d="m13.7,117.8c0,-1.1 0.8,-1.7 2,-1.7s2,0.7 2,1.7c0,1 -0.8,1.8 -2,1.8s-2,-0.7 -2,-1.8zm3.2,0c0,-0.8 -0.5,-1.3 -1.2,-1.3c-0.7,0 -1.2,0.5 -1.2,1.3c0,0.8 0.5,1.3 1.2,1.3c0.7,0 1.2,-0.5 1.2,-1.3z" class="st1"/>
      <path id="svg_13" d="m18.6,116.1l1.4,0c0.9,0 1.6,0.2 1.6,0.8c0,0.3 -0.2,0.6 -0.6,0.7l0,0c0.5,0.1 0.9,0.3 0.9,0.8c0,0.7 -0.7,1 -1.7,1l-1.6,0l0,-3.3zm1.3,1.4c0.7,0 1,-0.2 1,-0.5c0,-0.4 -0.3,-0.5 -1,-0.5l-0.6,0l0,1l0.6,0zm0.1,1.6c0.7,0 1.1,-0.2 1.1,-0.6s-0.4,-0.5 -1.1,-0.5l-0.7,0l0,1.2l0.7,-0.1l0,0z" class="st1"/>
      <path id="svg_14" d="m22.4,117.8c0,-1.1 0.8,-1.7 2,-1.7c1.2,0 2,0.7 2,1.7c0,1 -0.8,1.8 -2,1.8c-1.1,0 -2,-0.7 -2,-1.8zm3.3,0c0,-0.8 -0.5,-1.3 -1.2,-1.3s-1.2,0.5 -1.2,1.3c0,0.8 0.5,1.3 1.2,1.3s1.2,-0.5 1.2,-1.3z" class="st1"/>
      <path id="svg_15" d="m28.1,116.6l-1.3,0l0,-0.4l3.4,0l0,0.4l-1.4,0l0,2.9l-0.7,0l0,-2.9z" class="st1"/>
      <path id="svg_16" d="m32.1,117.8c0,-1.1 0.9,-1.8 2,-1.8c0.6,0 1,0.2 1.3,0.4l-0.4,0.4c-0.2,-0.2 -0.5,-0.3 -0.9,-0.3c-0.8,0 -1.3,0.5 -1.3,1.3c0,0.8 0.5,1.3 1.3,1.3c0.4,0 0.7,-0.1 1,-0.4l0.4,0.3c-0.4,0.3 -0.8,0.5 -1.4,0.5c-1.1,0.1 -2,-0.6 -2,-1.7z" class="st1"/>
      <path id="svg_17" d="m35.8,117.8c0,-1.1 0.8,-1.7 2,-1.7c1.2,0 2,0.7 2,1.7c0,1 -0.8,1.8 -2,1.8c-1.2,0 -2,-0.7 -2,-1.8zm3.3,0c0,-0.8 -0.5,-1.3 -1.2,-1.3c-0.7,0 -1.2,0.5 -1.2,1.3c0,0.8 0.5,1.3 1.2,1.3c0.7,0 1.2,-0.5 1.2,-1.3z" class="st1"/>
      <path id="svg_18" d="m40.8,116.1l0.7,0l1.5,2l0.5,0.7l0,0c0,-0.3 -0.1,-0.8 -0.1,-1.1l0,-1.6l0.7,0l0,3.4l-0.7,0l-1.5,-2l-0.5,-0.7l0,0c0,0.3 0.1,0.7 0.1,1.1l0,1.6l-0.7,0l0,-3.4l0,0z" class="st1"/>
      <path id="svg_19" d="m46.2,116.6l-1.3,0l0,-0.4l3.4,0l0,0.4l-1.4,0l0,2.9l-0.7,0l0,-2.9z" class="st1"/>
      <path id="svg_20" d="m51.5,119.5l-1,-1.4l-0.8,0l0,1.4l-0.7,0l0,-3.4l1.5,0c0.9,0 1.6,0.2 1.6,1c0,0.5 -0.4,0.8 -1,1l1.1,1.4c0.1,0 -0.7,0 -0.7,0zm-1.7,-1.8l0.7,0c0.7,0 1,-0.2 1,-0.6s-0.4,-0.5 -1,-0.5l-0.7,0l0,1.1z" class="st1"/>
      <path id="svg_21" d="m52.8,117.8c0,-1.1 0.8,-1.7 2,-1.7c1.2,0 2,0.7 2,1.7c0,1 -0.8,1.8 -2,1.8c-1.1,0 -2,-0.7 -2,-1.8zm3.3,0c0,-0.8 -0.5,-1.3 -1.2,-1.3c-0.8,0 -1.2,0.5 -1.2,1.3c0,0.8 0.5,1.3 1.2,1.3s1.2,-0.5 1.2,-1.3z" class="st1"/>
      <path id="svg_22" d="m57.7,116.1l0.7,0l0,2.9l1.9,0l0,0.4l-2.6,0l0,-3.3z" class="st1"/>
      <path id="svg_23" d="m62.2,119.1l0.4,-0.4c0.3,0.2 0.8,0.4 1.2,0.4c0.5,0 0.9,-0.2 0.9,-0.5c0,-0.3 -0.3,-0.4 -0.7,-0.5l-0.6,-0.2c-0.4,-0.1 -0.9,-0.4 -0.9,-0.9s0.6,-0.9 1.5,-0.9c0.5,0 1,0.2 1.4,0.4l-0.4,0.3c-0.3,-0.2 -0.6,-0.3 -1,-0.3c-0.5,0 -0.8,0.2 -0.8,0.4c0,0.3 0.4,0.4 0.7,0.5l0.6,0.2c0.5,0.2 0.9,0.4 0.9,0.9c0,0.5 -0.6,1 -1.6,1c-0.6,0.1 -1.1,-0.1 -1.6,-0.4z" class="st1"/>
      <path id="svg_24" d="m67,118.2l-1.4,-2.1l0.8,0l0.5,0.9c0.1,0.2 0.3,0.5 0.4,0.7l0,0c0.1,-0.3 0.3,-0.5 0.4,-0.7l0.5,-0.9l0.8,0l-1.4,2.1l0,1.3l-0.6,0l0,-1.3z" class="st1"/>
      <path id="svg_25" d="m69.2,119.1l0.4,-0.4c0.3,0.2 0.8,0.4 1.2,0.4c0.5,0 0.9,-0.2 0.9,-0.5c0,-0.3 -0.3,-0.4 -0.7,-0.5l-0.6,-0.2c-0.4,-0.1 -0.9,-0.4 -0.9,-0.9c0,-0.5 0.6,-0.9 1.5,-0.9c0.5,0 1,0.2 1.4,0.4l-0.4,0.3c-0.3,-0.2 -0.6,-0.3 -1,-0.3c-0.5,0 -0.8,0.2 -0.8,0.4c0,0.3 0.4,0.4 0.7,0.5l0.6,0.2c0.5,0.2 0.9,0.4 0.9,0.9c0,0.5 -0.6,1 -1.6,1c-0.6,0.1 -1.2,-0.1 -1.6,-0.4z" class="st1"/>
      <path id="svg_26" d="m74,116.6l-1.3,0l0,-0.4l3.4,0l0,0.4l-1.3,0l0,2.9l-0.8,0l0,-2.9z" class="st1"/>
      <path id="svg_27" d="m76.9,116.1l2.7,0l0,0.4l-2,0l0,0.9l1.7,0l0,0.4l-1.7,0l0,1.1l2,0l0,0.4l-2.7,0l0,-3.2z" class="st1"/>
      <path id="svg_28" d="m80.6,116.1l0.8,0l0.8,1.7c0.1,0.2 0.2,0.5 0.3,0.7l0,0c0.1,-0.2 0.2,-0.5 0.3,-0.7l0.8,-1.7l0.8,0l0,3.4l-0.5,0l0,-1.7c0,-0.3 0.1,-0.7 0.1,-1l0,0l-0.4,0.8l-0.8,1.6l-0.5,0l-0.8,-1.6l-0.4,-0.8l0,0c0,0.3 0.1,0.7 0.1,1l0,1.7l-0.6,0l0,-3.4z" class="st1"/>
     </g>
     <path id="svg_29" d="m69.1,19.8l-2.4,1.5c0.6,-0.5 1.3,-0.9 2.1,-1.3c0,0 0.1,0 0.1,-0.1c0.1,0 0.2,-0.1 0.2,-0.1z" class="st1"/>
     <path id="svg_30" d="m22.6,50.5c0,-0.1 0.1,-0.3 0.1,-0.4c-1.1,-0.1 -2.2,-0.2 -3.5,-0.3c0,0 -0.5,-2.8 -0.6,-4c0.1,0.2 0.4,0.4 0.8,0.4c1.1,0.1 2.3,0.2 3.4,0.4c0.8,0.1 1,0.1 1.2,-0.3c0,-0.1 -1.1,3.1 -1.4,4.2z" class="st0"/>
     <path id="svg_31" d="m75.4,45.5c-0.1,2.1 -0.7,4.3 -0.7,4.3l-1.8,0.2l-1.6,0.1c-0.3,-1.3 -1.2,-3.4 -1.2,-3.4c1.6,-0.2 3.2,-0.3 4.7,-0.5c0.2,-0.1 0.4,-0.5 0.6,-0.7z" class="st0"/>
     <g id="svg_32">
      <path id="svg_33" d="m66.2,29.8l1.1,0l0,0.2l-0.8,0l0,0.6l0.7,0l0,0.2l-0.7,0l0,0.8l-0.3,0c0,0 0,-1.8 0,-1.8z" class="st1"/>
      <path id="svg_34" d="m68.6,31.7l-0.4,-0.8l-0.3,0l0,0.7l-0.3,0l0,-1.8l0.6,0c0.4,0 0.7,0.1 0.7,0.5c0,0.3 -0.1,0.5 -0.4,0.5l0.5,0.9l-0.4,0l0,0zm-0.7,-1l0.3,0c0.3,0 0.4,-0.1 0.4,-0.3c0,-0.2 -0.1,-0.3 -0.4,-0.3l-0.3,0l0,0.6z" class="st1"/>
      <path id="svg_35" d="m69.2,30.7c0,-0.6 0.3,-0.9 0.8,-0.9c0.5,0 0.8,0.4 0.8,0.9c0,0.6 -0.3,1 -0.8,1c-0.5,0 -0.8,-0.4 -0.8,-1zm1.3,0c0,-0.4 -0.2,-0.7 -0.5,-0.7s-0.5,0.3 -0.5,0.7s0.2,0.7 0.5,0.7c0.2,0.1 0.5,-0.2 0.5,-0.7z" class="st1"/>
      <path id="svg_36" d="m71.1,29.8l0.3,0l0.6,1.1l0.2,0.4l0,0c0,-0.2 0,-0.4 0,-0.6l0,-0.9l0.3,0l0,1.8l-0.3,0l-0.6,-1l-0.2,-0.4l0,0c0,0.2 0,0.4 0,0.6l0,0.9l-0.3,0l0,-1.9z" class="st1"/>
      <path id="svg_37" d="m73.3,30.1l-0.5,0l0,-0.3l1.4,0l0,0.2l-0.6,0l0,1.6l-0.3,0l0,-1.5z" class="st1"/>
      <path id="svg_38" d="m75,29.8l1.1,0l0,0.2l-0.8,0l0,0.5l0.7,0l0,0.2l-0.7,0l0,0.6l0.8,0l0,0.2l-1.1,0c0,0.2 0,-1.7 0,-1.7z" class="st1"/>
      <path id="svg_39" d="m76.5,29.8l0.3,0l0.6,1.1l0.2,0.4l0,0c0,-0.2 0,-0.4 0,-0.6l0,-0.9l0.3,0l0,1.8l-0.3,0l-0.7,-1l-0.1,-0.4l0,0c0,0.2 0,0.4 0,0.6l0,0.9l-0.3,0l0,-1.9l0,0z" class="st1"/>
      <path id="svg_40" d="m78.3,29.8l0.5,0c0.6,0 0.9,0.3 0.9,0.9c0,0.6 -0.3,1 -0.9,1l-0.5,0l0,-1.9l0,0zm0.5,1.6c0.4,0 0.6,-0.2 0.6,-0.7s-0.2,-0.6 -0.6,-0.6l-0.2,0l0,1.4l0.2,-0.1l0,0z" class="st1"/>
     </g>
     <g id="svg_41">
      <path id="svg_42" d="m68.1,36.6l0.3,-0.4c0.3,0.3 0.6,0.4 1,0.4s0.7,-0.2 0.7,-0.5s-0.2,-0.4 -0.6,-0.6l-0.5,-0.2c-0.3,-0.1 -0.7,-0.4 -0.7,-0.9c0,-0.6 0.5,-1 1.2,-1c0.4,0 0.8,0.2 1.1,0.5l-0.3,0.3c-0.3,-0.2 -0.5,-0.3 -0.8,-0.3c-0.4,0 -0.6,0.2 -0.6,0.5s0.3,0.4 0.6,0.5l0.5,0.2c0.4,0.2 0.7,0.4 0.7,1c0,0.6 -0.5,1 -1.3,1c-0.5,0 -1,-0.2 -1.3,-0.5z" class="st1"/>
      <path id="svg_43" d="m71.4,33.4l0.9,0c1.1,0 1.7,0.6 1.7,1.8s-0.6,1.8 -1.7,1.8l-1,0l0.1,-3.6l0,0zm0.8,3.2c0.8,0 1.2,-0.5 1.2,-1.4c0,-0.9 -0.4,-1.3 -1.2,-1.3l-0.3,0l0,2.7c0,0 0.3,0 0.3,0z" class="st1"/>
      <path id="svg_44" d="m74.8,33.4l0.6,0l0,1.7l0,0l1.4,-1.7l0.6,0l-1.2,1.4l1.4,2.2l-0.7,0l-1,-1.8l-0.6,0.7l0,1.1l-0.5,0l0,-3.6l0,0z" class="st1"/>
     </g>
     <g id="svg_45">
      <path id="svg_46" d="m15.6,30.8c0,-0.6 0.4,-1 0.8,-1c0.2,0 0.4,0.1 0.5,0.2l-0.1,0.2c-0.1,-0.1 -0.3,-0.1 -0.4,-0.1c-0.3,0 -0.5,0.3 -0.5,0.7s0.2,0.7 0.5,0.7c0.2,0 0.3,-0.1 0.4,-0.2l0.2,0.1c-0.2,0.2 -0.4,0.3 -0.6,0.3c-0.5,0 -0.8,-0.3 -0.8,-0.9z" class="st1"/>
      <path id="svg_47" d="m17.1,30.7c0,-0.6 0.3,-0.9 0.8,-0.9s0.8,0.4 0.8,0.9c0,0.6 -0.3,1 -0.8,1c-0.5,0 -0.8,-0.4 -0.8,-1zm1.3,0c0,-0.4 -0.2,-0.7 -0.5,-0.7s-0.5,0.3 -0.5,0.7s0.2,0.7 0.5,0.7c0.3,0 0.5,-0.2 0.5,-0.7z" class="st1"/>
      <path id="svg_48" d="m19.1,29.8l0.3,0l0.6,1.1l0.2,0.4l0,0c0,-0.2 0,-0.4 0,-0.6l0,-0.9l0.3,0l0,1.8l-0.4,0l-0.6,-1l-0.2,-0.4l0,0c0,0.2 0,0.4 0,0.6l0,0.9l-0.2,0l0,-1.9l0,0z" class="st1"/>
      <path id="svg_49" d="m21.3,30.1l-0.6,0l0,-0.3l1.4,0l0,0.2l-0.6,0l0,1.6l-0.2,0c0,0.1 0,-1.5 0,-1.5z" class="st1"/>
      <path id="svg_50" d="m23.4,31.7l-0.4,-0.8l-0.3,0l0,0.7l-0.3,0l0,-1.8l0.6,0c0.4,0 0.7,0.1 0.7,0.5c0,0.3 -0.1,0.5 -0.4,0.5l0.4,0.8l-0.3,0.1l0,0zm-0.7,-1l0.3,0c0.3,0 0.4,-0.1 0.4,-0.3c0,-0.2 -0.1,-0.3 -0.4,-0.3l-0.3,0l0,0.6z" class="st1"/>
      <path id="svg_51" d="m23.9,30.7c0,-0.6 0.3,-0.9 0.8,-0.9c0.5,0 0.8,0.4 0.8,0.9c0,0.6 -0.3,1 -0.8,1c-0.4,0 -0.8,-0.4 -0.8,-1zm1.3,0c0,-0.4 -0.2,-0.7 -0.5,-0.7c-0.3,0 -0.5,0.3 -0.5,0.7s0.2,0.7 0.5,0.7c0.3,0 0.5,-0.2 0.5,-0.7z" class="st1"/>
      <path id="svg_52" d="m25.9,29.8l0.3,0l0,1.6l0.8,0l0,0.2l-1.1,0c0,0.1 0,-1.8 0,-1.8z" class="st1"/>
     </g>
     <g id="svg_53">
      <path id="svg_54" d="m18.4,36l-1.3,0l-0.3,1l-0.6,0l1.2,-3.6l0.7,0l1.2,3.6l-0.6,0l-0.3,-1zm-0.2,-0.4l-0.1,-0.5c-0.1,-0.4 -0.2,-0.8 -0.3,-1.2l0,0c-0.2,0.4 -0.3,0.8 -0.4,1.2l-0.1,0.5l0.9,0z" class="st1"/>
      <path id="svg_55" d="m19.8,33.4l1.1,0c0.8,0 1.4,0.3 1.4,1.1s-0.6,1.2 -1.4,1.2l-0.6,0l0,1.3l-0.5,0l0,-3.6l0,0zm1,1.8c0.6,0 0.9,-0.2 0.9,-0.7c0,-0.5 -0.3,-0.6 -0.9,-0.6l-0.5,0l0,1.3l0.5,0z" class="st1"/>
      <path id="svg_56" d="m22.9,33.4l1.1,0c0.8,0 1.4,0.3 1.4,1.1s-0.6,1.2 -1.4,1.2l-0.5,0l0,1.3l-0.6,0l0,-3.6l0,0zm1.1,1.8c0.6,0 0.9,-0.2 0.9,-0.7c0,-0.5 -0.3,-0.6 -0.9,-0.6l-0.5,0l0,1.3l0.5,0z" class="st1"/>
     </g>
     <path id="svg_57" d="m68.1,105.1c-0.1,-0.1 -0.2,-0.2 -0.4,-0.3c-0.8,-0.6 -1.7,-1.2 -2.6,-1.9c-0.5,-0.4 -0.9,-0.3 -1.4,0.1c-1.6,1.7 -4.5,1.9 -6.4,0.5c-1.7,-1.2 -2.3,-4 -1.2,-6.1c1.5,-2.8 5,-3.5 7.7,-1.5c0.5,0.4 0.9,0.4 1.5,0c0.8,-0.6 1.7,-1.2 2.5,-1.8c0.1,-0.1 0.2,-0.1 0.2,-0.2c0.8,-0.6 0.8,-0.9 0,-1.7c-0.2,-0.1 -0.3,-0.3 -0.5,-0.4c-2.3,-1.8 -4.8,-2.7 -7.6,-2.6c-0.1,0 -0.2,0 -0.4,0c-2.5,0 -4.7,0.9 -6.5,2.5c-0.1,0.1 -0.3,0.3 -0.5,0.5c-0.2,0.2 -0.5,0.5 -0.7,0.8c-0.1,0.1 -0.2,0.2 -0.3,0.4c-0.1,0.1 -0.2,0.2 -0.3,0.4c-0.1,0.2 -0.3,0.5 -0.5,0.8c-0.5,0.9 -0.8,1.8 -1,2.8c-0.1,0.8 -0.2,1.5 -0.2,2.2s0.1,1.4 0.2,2.1c0.7,3.6 3.1,6.5 6.4,7.7l0.1,0c1.1,0.4 2.2,0.6 3.4,0.6l0,0c0.2,0 0.3,0 0.5,0c3.1,0.1 5.8,-1.2 7.9,-3.5c0.6,-0.6 0.7,-0.9 0.1,-1.4z" class="st1"/>
     <path id="svg_58" d="m38.1,93.9c-4.7,0 -8.6,3.7 -8.6,8.2s3.9,8.2 8.6,8.2c4.7,0 8.6,-3.7 8.6,-8.2c0,-4.6 -3.9,-8.2 -8.6,-8.2zm0,12.4c-2.5,0 -4.5,-1.9 -4.5,-4.3c0,-2.4 2,-4.3 4.5,-4.3s4.5,1.9 4.5,4.3c0,2.4 -2.1,4.3 -4.5,4.3z" class="st1"/>
    </g>
   </g>
   <rect id="svg_59" height="122" width="94" class="st2"/>
  </g>
 </g>
</svg>