<svg width="580" height="400" xmlns="http://www.w3.org/2000/svg">
 <!-- Created with Method Draw - http://github.com/duopixel/Method-Draw/ -->

 <g>
  <title>Layer 1</title>
  <style type="text/css">.st0{fill:#59666E;}
	.st1{fill:#1E353A;}
	.st2{fill:none;}</style>
  <g id="svg_68">
   <g id="svg_7"/>
   <g id="svg_9">
    <g id="svg_6">
     <g id="svg_10">
      <path id="svg_11" d="m291.109988,196.519994c0,0 0.17,0.09 0.27,0.22l0.16,-0.11c0,0 0,-0.08 0,-0.18c0,0 -0.16,-0.2 -0.33,-0.31l-0.1,0.38z" class="st0"/>
      <path id="svg_12" d="m288.919988,196.519994c0,0 -0.17,0.09 -0.27,0.22l-0.16,-0.11c0,0 0,-0.08 0,-0.18c0,0 0.16,-0.2 0.33,-0.31l0.1,0.38z" class="st0"/>
      <path id="svg_13" d="m292.109988,195.879994c-0.15,-0.12 -0.3,-0.25 -0.46,-0.37c-0.03,-0.02 -0.06,-0.04 -0.1,-0.06c-0.09,-0.05 -0.17,-0.03 -0.23,0.07c-0.05,0.07 -0.06,0.16 -0.04,0.25c0,0.03 0.04,0.06 0.08,0.08c0.06,0.03 0.12,0.07 0.17,0.1c0.03,0.02 0.06,0.05 0.1,0.07c0.05,0.04 0.1,0.08 0.15,0.12l0.02,0.02l0.17,-0.14c0.06,-0.04 0.13,-0.08 0.21,-0.12c-0.02,0.01 -0.05,-0.01 -0.07,-0.02zm-0.34,0.27l0.02,0.02c0.06,-0.05 0.11,-0.1 0.18,-0.14l-0.2,0.12zm2.37,1.63c-0.01,-0.13 -0.03,-0.26 -0.05,-0.39c-0.01,-0.07 -0.05,-0.09 -0.11,-0.07c-0.03,0.01 -0.06,0.01 -0.11,0.03c0,-0.1 0,-0.18 0,-0.27c0,-0.01 0.02,-0.03 0.04,-0.04c0.09,-0.04 0.09,-0.04 0.05,-0.13c-0.28,-0.7 -0.71,-1.3 -1.29,-1.77c-0.94,-0.77 -2.01,-1.12 -3.22,-0.95c-0.53,0.07 -1.02,0.24 -1.49,0.51c-0.75,0.43 -1.33,1.05 -1.74,1.81c-0.07,0.14 -0.13,0.28 -0.19,0.42c-0.02,0.05 -0.02,0.09 0.05,0.11c0.02,0 0.05,0.03 0.05,0.04c0,0.09 0,0.17 0,0.27c-0.04,-0.01 -0.06,-0.02 -0.08,-0.02c-0.09,-0.03 -0.13,0 -0.15,0.09c-0.06,0.4 -0.09,0.81 -0.03,1.23c0.15,1.07 0.65,1.93 1.49,2.6c0.14,0.11 0.16,0.1 0.19,-0.08c0.02,-0.09 0.04,-0.18 0.06,-0.27c0.2,0.06 0.39,0.12 0.59,0.18c0,0.03 0,0.06 0,0.1c-0.01,0.17 -0.01,0.33 -0.02,0.5c0,0.08 0.03,0.11 0.09,0.14c0.72,0.3 1.47,0.42 2.25,0.32c0.43,-0.05 0.84,-0.17 1.24,-0.33c0.05,-0.02 0.07,-0.05 0.07,-0.1c-0.03,-0.15 -0.03,-0.29 -0.04,-0.43c0,-0.07 0,-0.14 0,-0.21c0.2,-0.05 0.39,-0.11 0.58,-0.17c0.02,0.1 0.04,0.21 0.06,0.31c0.03,0.12 0.07,0.14 0.17,0.06c0.45,-0.34 0.82,-0.76 1.09,-1.27c0.37,-0.69 0.53,-1.43 0.45,-2.22zm-0.72,-0.58c0,0.45 -0.38,0.81 -0.86,0.81c-0.46,0 -0.82,-0.37 -0.82,-0.82c0,-0.48 0.37,-0.85 0.84,-0.85s0.85,0.39 0.84,0.86zm-2.6,-2.27c0.02,-0.02 0.05,-0.04 0.07,-0.03c0.08,0.02 0.16,0.04 0.24,0.07c0.47,0.15 0.88,0.41 1.23,0.75c0.01,0.01 0.02,0.02 0.04,0.04c-0.07,0.05 -0.14,0.09 -0.21,0.13c0,0 -0.01,0 -0.01,0.01c-0.02,0.01 -0.05,-0.01 -0.07,-0.02c-0.15,-0.12 -0.3,-0.25 -0.46,-0.37c-0.03,-0.02 -0.06,-0.04 -0.1,-0.06c-0.09,-0.05 -0.17,-0.03 -0.23,0.07c-0.05,0.07 -0.06,0.16 -0.04,0.25c0,0.03 0.04,0.06 0.08,0.08c0.06,0.03 0.12,0.07 0.17,0.1c0.03,0.02 0.06,0.05 0.1,0.07c0.05,0.04 0.1,0.08 0.15,0.12l0.02,0.02c-0.28,0.24 -0.41,0.49 -0.48,0.67c-0.03,0.09 -0.05,0.18 -0.08,0.28c-0.11,0 -0.23,0 -0.34,0c-0.01,0 -0.03,-0.01 -0.04,-0.03c-0.02,-0.05 -0.03,-0.1 -0.04,-0.14c0,-0.01 0,-0.02 0.01,-0.03c0.08,-0.11 0.16,-0.22 0.24,-0.33c0,0 0,0 0,-0.01c0.14,-0.2 0.15,-0.63 0.15,-0.7c0,-0.01 0,-0.01 0,-0.01c0,-0.29 -0.11,-0.56 -0.32,-0.8c-0.02,-0.02 -0.05,-0.04 -0.07,-0.07c-0.01,-0.02 -0.02,-0.05 -0.01,-0.06zm0.55,2.76c-0.14,-0.05 -0.25,-0.09 -0.36,-0.13l0,-0.02c0.09,-0.01 0.17,-0.02 0.26,-0.03c0.01,0 0.03,0.01 0.03,0.02c0.02,0.05 0.04,0.09 0.07,0.16zm-2.02,-2.25c0.34,-0.51 1.03,-0.42 1.31,0.04c0.09,0.14 0.13,0.3 0.13,0.47c0,0.3 -0.13,0.54 -0.35,0.73c-0.22,0.2 -0.57,0.22 -0.81,0.07c-0.41,-0.26 -0.6,-0.84 -0.28,-1.31zm0.18,1.9c0,-0.03 -0.01,-0.06 -0.01,-0.1c0.32,0.12 0.63,0.11 0.94,0c0,0.09 -0.01,0.17 -0.01,0.24c0,0.1 0.02,0.2 0.08,0.29c0.01,0.02 0.01,0.06 -0.01,0.08c-0.1,0.14 -0.24,0.21 -0.41,0.23c-0.22,0.02 -0.42,0 -0.59,-0.16c-0.08,-0.08 -0.09,-0.1 -0.03,-0.2c0.06,-0.12 0.05,-0.25 0.04,-0.38zm-1.82,-1.7c0.39,-0.34 0.84,-0.59 1.34,-0.74c0.06,-0.02 0.1,-0.01 0.13,0.06c-0.04,0.05 -0.09,0.1 -0.13,0.15c-0.25,0.29 -0.32,0.62 -0.29,0.98c0.03,0.32 0.16,0.58 0.38,0.81c0.01,0.01 0.02,0.04 0.02,0.06c-0.01,0.05 -0.03,0.1 -0.05,0.16c-0.12,0 -0.24,-0.01 -0.37,-0.01c-0.04,-0.39 -0.21,-0.7 -0.53,-0.96c0.1,-0.07 0.19,-0.14 0.28,-0.21c0.05,-0.04 0.11,-0.07 0.16,-0.1c0.05,-0.03 0.07,-0.06 0.06,-0.11c0,-0.05 -0.01,-0.1 -0.02,-0.14c-0.03,-0.14 -0.15,-0.2 -0.27,-0.12c-0.16,0.11 -0.33,0.25 -0.5,0.38c-0.02,0.02 -0.05,0.05 -0.08,0.07c-0.08,-0.05 -0.16,-0.1 -0.25,-0.16c0.04,-0.04 0.08,-0.08 0.12,-0.12zm1.23,1.91c0,0.01 0,0.01 0,0.02c-0.1,0.04 -0.2,0.08 -0.32,0.12c0.03,-0.06 0.04,-0.11 0.06,-0.15c0.01,-0.01 0.03,-0.03 0.04,-0.02c0.08,0 0.15,0.02 0.22,0.03zm-1.51,-1.21c0.45,0 0.83,0.4 0.83,0.86c0,0.35 -0.31,0.82 -0.84,0.81c-0.46,-0.01 -0.82,-0.36 -0.82,-0.81c0,-0.49 0.36,-0.86 0.83,-0.86zm0.13,2.61c0,0.01 0,0.01 0,0.02c-0.1,0.45 -0.19,0.89 -0.29,1.33c-0.6,-0.65 -0.86,-1.42 -0.84,-2.29c0.07,0.07 0.13,0.13 0.19,0.19c0.01,0 0.01,0.02 0.01,0.04c0,0.35 0.07,0.69 0.16,1.03c0,0.02 0.01,0.04 0.02,0.05c0.03,0.1 0.08,0.12 0.18,0.08c0.1,-0.05 0.19,-0.1 0.29,-0.14c0.04,-0.03 0.05,-0.06 0.03,-0.1c-0.03,-0.09 -0.05,-0.18 -0.09,-0.28c0.13,0.01 0.24,0.02 0.35,0.03c0,0.02 -0.01,0.03 -0.01,0.04zm0.02,-0.39c-0.12,-0.02 -0.23,-0.03 -0.34,-0.04c-0.04,0 -0.06,-0.01 -0.07,-0.03c0,-0.01 0,-0.02 0,-0.04l0.55,0c0,0 0,0.02 -0.01,0.03c0,0.02 -0.01,0.03 -0.01,0.05c-0.02,0.05 -0.04,0.04 -0.12,0.03zm0.7,1.56c-0.03,0.16 -0.05,0.33 -0.08,0.52c-0.1,-0.03 -0.19,-0.05 -0.28,-0.08c-0.06,-0.02 -0.13,-0.04 -0.19,-0.06c-0.01,-0.01 -0.04,-0.04 -0.03,-0.06c0.04,-0.2 0.08,-0.39 0.13,-0.6c0.13,0.05 0.25,0.1 0.38,0.14c0.07,0.03 0.08,0.06 0.07,0.14zm0.9,-0.06c-0.11,0.1 -0.15,0.23 -0.15,0.38c0,0.32 0,0.64 0,0.96l0,0.1c-0.12,-0.04 -0.23,-0.07 -0.33,-0.11c-0.01,-0.01 -0.03,-0.04 -0.03,-0.07c0.01,-0.37 0.02,-0.74 0.03,-1.11c0,-0.07 0.01,-0.13 0.01,-0.2l0.51,0c-0.02,0.02 -0.03,0.04 -0.04,0.05zm1.37,1.52c-0.27,0.05 -0.54,0.06 -0.8,0.04c-0.09,-0.01 -0.19,-0.02 -0.28,-0.04c-0.02,0 -0.05,-0.03 -0.05,-0.05c0,-0.36 0,-0.72 0,-1.08c0,-0.11 0.06,-0.17 0.14,-0.23c0.27,0.18 0.54,0.19 0.82,0.02c0.01,-0.01 0.03,-0.01 0.04,-0.01c0.06,0.04 0.13,0.09 0.14,0.17c0,0.4 -0.01,0.78 -0.01,1.18zm-0.86,-1.94c0,-0.16 0.14,-0.29 0.3,-0.29c0.17,0 0.31,0.14 0.31,0.31c0,0.16 -0.14,0.29 -0.3,0.29c-0.18,-0.01 -0.31,-0.13 -0.31,-0.31zm1.61,1.76c-0.1,0.04 -0.21,0.07 -0.34,0.11l0,-0.33c0,-0.19 0,-0.38 0,-0.58c0,-0.33 0,-0.33 -0.19,-0.59l0.5,0c0.01,0.07 0.02,0.14 0.02,0.2c0.01,0.38 0.03,0.75 0.04,1.13c0,0.02 -0.02,0.05 -0.03,0.06zm0.17,-2c-0.01,-0.05 -0.04,-0.09 -0.1,-0.08s-0.09,0.04 -0.09,0.1l0,0.18c-0.18,0 -0.35,0 -0.51,0c-0.02,0 -0.04,-0.03 -0.05,-0.06c-0.04,-0.2 -0.14,-0.35 -0.31,-0.47c-0.42,-0.29 -1,-0.08 -1.12,0.42c-0.01,0.03 -0.02,0.07 -0.03,0.11l-0.55,0c0,-0.06 0,-0.12 -0.01,-0.17c0,-0.05 -0.02,-0.09 -0.08,-0.1c-0.06,-0.02 -0.09,0.01 -0.11,0.07c-0.02,0.07 -0.04,0.14 -0.06,0.22c-0.19,-0.07 -0.37,-0.13 -0.54,-0.2c-0.02,-0.01 -0.03,-0.07 -0.02,-0.09c0.03,-0.17 0.07,-0.33 0.11,-0.49c0.03,-0.11 0.07,-0.21 0.11,-0.32c0.05,-0.14 0.15,-0.24 0.3,-0.29c0.21,-0.08 0.43,-0.16 0.65,-0.23c0.2,0.37 0.53,0.5 0.92,0.5s0.72,-0.14 0.93,-0.5c0.25,0.09 0.49,0.16 0.73,0.25c0.13,0.04 0.2,0.15 0.23,0.28c0.08,0.25 0.14,0.51 0.22,0.77c0.01,0.03 0.01,0.07 0.02,0.12c-0.19,0.07 -0.38,0.14 -0.57,0.21c-0.03,-0.09 -0.05,-0.16 -0.07,-0.23zm0.31,1.24c-0.03,-0.2 -0.05,-0.38 -0.08,-0.57c0,-0.02 0.01,-0.06 0.03,-0.07c0.14,-0.05 0.28,-0.1 0.43,-0.15c0.04,0.21 0.09,0.42 0.14,0.64c-0.18,0.05 -0.35,0.1 -0.52,0.15zm0.49,-2.2l0.55,0c0.01,0 0.01,0.01 0.02,0.01c-0.02,0.02 -0.04,0.06 -0.06,0.06c-0.15,0.02 -0.31,0.04 -0.47,0.06c-0.01,-0.04 -0.03,-0.09 -0.04,-0.13zm0.45,1.88c-0.1,-0.47 -0.19,-0.94 -0.29,-1.41c0.05,0 0.1,-0.01 0.16,-0.01l0.18,-0.01c-0.03,0.08 -0.06,0.15 -0.08,0.23c-0.04,0.1 -0.03,0.11 0.06,0.16c0.08,0.03 0.17,0.08 0.25,0.12c0.1,0.05 0.14,0.03 0.18,-0.08c0.05,-0.18 0.1,-0.36 0.13,-0.54s0.04,-0.36 0.06,-0.54c0,-0.02 0.01,-0.03 0.02,-0.04c0.05,-0.07 0.11,-0.12 0.18,-0.19c0.01,0.89 -0.26,1.65 -0.85,2.31zm-0.61,-4.44c-0.15,-0.12 -0.3,-0.25 -0.46,-0.37c-0.03,-0.02 -0.06,-0.04 -0.1,-0.06c-0.09,-0.05 -0.17,-0.03 -0.23,0.07c-0.05,0.07 -0.06,0.16 -0.04,0.25c0,0.03 0.04,0.06 0.08,0.08c0.06,0.03 0.12,0.07 0.17,0.1c0.03,0.02 0.06,0.05 0.1,0.07c0.05,0.04 0.1,0.08 0.15,0.12l0.19,-0.12c0.06,-0.04 0.13,-0.08 0.21,-0.12c-0.02,0.01 -0.05,-0.01 -0.07,-0.02z" class="st1"/>
      <circle id="svg_14" r="0.17" cy="195.679994" cx="289.699988" class="st1"/>
      <circle id="svg_15" r="0.17" cy="195.679994" cx="290.279988" class="st1"/>
      <path id="svg_16" d="m287.689988,204.179994c0.11,0.17 0.23,0.33 0.34,0.5c0.02,0.03 0.04,0.05 0.05,0.08c0.04,0.08 0.01,0.14 -0.06,0.14c-0.15,0.01 -0.3,0.01 -0.45,0c-0.04,0 -0.08,-0.05 -0.11,-0.08c-0.1,-0.15 -0.2,-0.3 -0.3,-0.45c-0.02,-0.04 -0.05,-0.05 -0.09,-0.05c-0.08,0 -0.15,0 -0.24,0c0,0.06 0,0.11 0,0.17c0,0.1 0,0.21 0,0.31c0,0.08 -0.04,0.11 -0.12,0.12c-0.12,0 -0.23,0 -0.34,0c-0.1,0 -0.13,-0.03 -0.13,-0.13c0,-0.61 0,-1.21 0,-1.82c0,-0.08 0.03,-0.12 0.11,-0.12c0.1,-0.01 0.2,0 0.29,0c0.23,0 0.46,0 0.68,0.01c0.29,0.02 0.51,0.18 0.62,0.46c0.1,0.26 0.08,0.52 -0.11,0.75c-0.04,0.03 -0.09,0.07 -0.14,0.11zm-0.86,-0.37c0.02,0 0.03,0 0.04,0c0.11,0 0.21,0 0.31,0c0.13,0 0.19,-0.06 0.2,-0.18s-0.06,-0.22 -0.18,-0.23s-0.25,0 -0.38,0c0.01,0.13 0.01,0.27 0.01,0.41z" class="st1"/>
      <path id="svg_17" d="m293.009988,204.929994c-0.25,0 -0.49,-0.07 -0.7,-0.21c-0.14,-0.09 -0.15,-0.17 -0.06,-0.3c0.05,-0.07 0.1,-0.13 0.15,-0.19c0.04,-0.05 0.08,-0.06 0.14,-0.02c0.13,0.1 0.28,0.18 0.46,0.19c0.06,0 0.12,0 0.18,-0.02c0.05,-0.01 0.1,-0.04 0.09,-0.1c-0.01,-0.03 -0.04,-0.08 -0.07,-0.09c-0.08,-0.03 -0.16,-0.05 -0.25,-0.08c-0.13,-0.05 -0.27,-0.08 -0.39,-0.15c-0.38,-0.21 -0.32,-0.68 -0.11,-0.9c0.2,-0.21 0.46,-0.27 0.73,-0.25c0.2,0.01 0.39,0.07 0.56,0.19c0.13,0.09 0.13,0.14 0.04,0.26c-0.05,0.06 -0.09,0.12 -0.13,0.17c-0.07,0.08 -0.1,0.09 -0.2,0.04c-0.07,-0.03 -0.14,-0.08 -0.22,-0.1c-0.08,-0.01 -0.17,-0.01 -0.26,0c-0.03,0 -0.07,0.05 -0.07,0.07s0.02,0.08 0.05,0.09c0.08,0.04 0.18,0.07 0.27,0.09c0.11,0.04 0.23,0.07 0.34,0.12c0.36,0.16 0.4,0.56 0.21,0.83c-0.14,0.21 -0.35,0.31 -0.59,0.34c-0.06,0.01 -0.11,0.01 -0.17,0.02z" class="st1"/>
      <g id="svg_18">
       <path id="svg_19" d="m286.539988,205.849994l-0.1,-0.14l-0.08,0l0,0.14l-0.07,0l0,-0.34l0.15,0c0.09,0 0.16,0.02 0.16,0.1c0,0.05 -0.04,0.08 -0.1,0.1l0.11,0.14c0.01,0 -0.07,0 -0.07,0zm-0.18,-0.18l0.07,0c0.07,0 0.1,-0.02 0.1,-0.06s-0.04,-0.05 -0.1,-0.05l-0.07,0l0,0.11z" class="st1"/>
       <path id="svg_20" d="m286.669988,205.679994c0,-0.11 0.08,-0.17 0.2,-0.17s0.2,0.07 0.2,0.17s-0.08,0.18 -0.2,0.18s-0.2,-0.07 -0.2,-0.18zm0.32,0c0,-0.08 -0.05,-0.13 -0.12,-0.13s-0.12,0.05 -0.12,0.13s0.05,0.13 0.12,0.13s0.12,-0.05 0.12,-0.13z" class="st1"/>
       <path id="svg_21" d="m287.159988,205.509994l0.14,0c0.09,0 0.16,0.02 0.16,0.08c0,0.03 -0.02,0.06 -0.06,0.07l0,0c0.05,0.01 0.09,0.03 0.09,0.08c0,0.07 -0.07,0.1 -0.17,0.1l-0.16,0l0,-0.33zm0.13,0.14c0.07,0 0.1,-0.02 0.1,-0.05c0,-0.04 -0.03,-0.05 -0.1,-0.05l-0.06,0l0,0.1l0.06,0zm0.01,0.16c0.07,0 0.11,-0.02 0.11,-0.06s-0.04,-0.05 -0.11,-0.05l-0.07,0l0,0.12l0.07,-0.01l0,0z" class="st1"/>
       <path id="svg_22" d="m287.539988,205.679994c0,-0.11 0.08,-0.17 0.2,-0.17c0.12,0 0.2,0.07 0.2,0.17s-0.08,0.18 -0.2,0.18c-0.11,0 -0.2,-0.07 -0.2,-0.18zm0.33,0c0,-0.08 -0.05,-0.13 -0.12,-0.13s-0.12,0.05 -0.12,0.13s0.05,0.13 0.12,0.13s0.12,-0.05 0.12,-0.13z" class="st1"/>
       <path id="svg_23" d="m288.109988,205.559994l-0.13,0l0,-0.04l0.34,0l0,0.04l-0.14,0l0,0.29l-0.07,0l0,-0.29z" class="st1"/>
       <path id="svg_24" d="m288.509988,205.679994c0,-0.11 0.09,-0.18 0.2,-0.18c0.06,0 0.1,0.02 0.13,0.04l-0.04,0.04c-0.02,-0.02 -0.05,-0.03 -0.09,-0.03c-0.08,0 -0.13,0.05 -0.13,0.13s0.05,0.13 0.13,0.13c0.04,0 0.07,-0.01 0.1,-0.04l0.04,0.03c-0.04,0.03 -0.08,0.05 -0.14,0.05c-0.11,0.01 -0.2,-0.06 -0.2,-0.17z" class="st1"/>
       <path id="svg_25" d="m288.879988,205.679994c0,-0.11 0.08,-0.17 0.2,-0.17s0.2,0.07 0.2,0.17s-0.08,0.18 -0.2,0.18s-0.2,-0.07 -0.2,-0.18zm0.33,0c0,-0.08 -0.05,-0.13 -0.12,-0.13s-0.12,0.05 -0.12,0.13s0.05,0.13 0.12,0.13c0.07,0 0.12,-0.05 0.12,-0.13z" class="st1"/>
       <path id="svg_26" d="m289.379988,205.509994l0.07,0l0.15,0.2l0.05,0.07l0,0c0,-0.03 -0.01,-0.08 -0.01,-0.11l0,-0.16l0.07,0l0,0.34l-0.07,0l-0.15,-0.2l-0.05,-0.07l0,0c0,0.03 0.01,0.07 0.01,0.11l0,0.16l-0.07,0l0,-0.34l0,0z" class="st1"/>
       <path id="svg_27" d="m289.919988,205.559994l-0.13,0l0,-0.04l0.34,0l0,0.04l-0.14,0l0,0.29l-0.07,0l0,-0.29z" class="st1"/>
       <path id="svg_28" d="m290.449988,205.849994l-0.1,-0.14l-0.08,0l0,0.14l-0.07,0l0,-0.34l0.15,0c0.09,0 0.16,0.02 0.16,0.1c0,0.05 -0.04,0.08 -0.1,0.1l0.11,0.14c0.01,0 -0.07,0 -0.07,0zm-0.17,-0.18l0.07,0c0.07,0 0.1,-0.02 0.1,-0.06s-0.04,-0.05 -0.1,-0.05l-0.07,0l0,0.11z" class="st1"/>
       <path id="svg_29" d="m290.579988,205.679994c0,-0.11 0.08,-0.17 0.2,-0.17s0.2,0.07 0.2,0.17s-0.08,0.18 -0.2,0.18c-0.11,0 -0.2,-0.07 -0.2,-0.18zm0.33,0c0,-0.08 -0.05,-0.13 -0.12,-0.13c-0.08,0 -0.12,0.05 -0.12,0.13s0.05,0.13 0.12,0.13s0.12,-0.05 0.12,-0.13z" class="st1"/>
       <path id="svg_30" d="m291.069988,205.509994l0.07,0l0,0.29l0.19,0l0,0.04l-0.26,0l0,-0.33z" class="st1"/>
       <path id="svg_31" d="m291.519988,205.809994l0.04,-0.04c0.03,0.02 0.08,0.04 0.12,0.04c0.05,0 0.09,-0.02 0.09,-0.05s-0.03,-0.04 -0.07,-0.05l-0.06,-0.02c-0.04,-0.01 -0.09,-0.04 -0.09,-0.09s0.06,-0.09 0.15,-0.09c0.05,0 0.1,0.02 0.14,0.04l-0.04,0.03c-0.03,-0.02 -0.06,-0.03 -0.1,-0.03c-0.05,0 -0.08,0.02 -0.08,0.04c0,0.03 0.04,0.04 0.07,0.05l0.06,0.02c0.05,0.02 0.09,0.04 0.09,0.09s-0.06,0.1 -0.16,0.1c-0.06,0.01 -0.11,-0.01 -0.16,-0.04z" class="st1"/>
       <path id="svg_32" d="m291.999988,205.719994l-0.14,-0.21l0.08,0l0.05,0.09c0.01,0.02 0.03,0.05 0.04,0.07l0,0c0.01,-0.03 0.03,-0.05 0.04,-0.07l0.05,-0.09l0.08,0l-0.14,0.21l0,0.13l-0.06,0l0,-0.13z" class="st1"/>
       <path id="svg_33" d="m292.219988,205.809994l0.04,-0.04c0.03,0.02 0.08,0.04 0.12,0.04c0.05,0 0.09,-0.02 0.09,-0.05s-0.03,-0.04 -0.07,-0.05l-0.06,-0.02c-0.04,-0.01 -0.09,-0.04 -0.09,-0.09s0.06,-0.09 0.15,-0.09c0.05,0 0.1,0.02 0.14,0.04l-0.04,0.03c-0.03,-0.02 -0.06,-0.03 -0.1,-0.03c-0.05,0 -0.08,0.02 -0.08,0.04c0,0.03 0.04,0.04 0.07,0.05l0.06,0.02c0.05,0.02 0.09,0.04 0.09,0.09s-0.06,0.1 -0.16,0.1c-0.06,0.01 -0.12,-0.01 -0.16,-0.04z" class="st1"/>
       <path id="svg_34" d="m292.699988,205.559994l-0.13,0l0,-0.04l0.34,0l0,0.04l-0.13,0l0,0.29l-0.08,0l0,-0.29z" class="st1"/>
       <path id="svg_35" d="m292.989988,205.509994l0.27,0l0,0.04l-0.2,0l0,0.09l0.17,0l0,0.04l-0.17,0l0,0.11l0.2,0l0,0.04l-0.27,0l0,-0.32z" class="st1"/>
       <path id="svg_36" d="m293.359988,205.509994l0.08,0l0.08,0.17c0.01,0.02 0.02,0.05 0.03,0.07l0,0c0.01,-0.02 0.02,-0.05 0.03,-0.07l0.08,-0.17l0.08,0l0,0.34l-0.05,0l0,-0.17c0,-0.03 0.01,-0.07 0.01,-0.1l0,0l-0.04,0.08l-0.08,0.16l-0.05,0l-0.08,-0.16l-0.04,-0.08l0,0c0,0.03 0.01,0.07 0.01,0.1l0,0.17l-0.06,0l0,-0.34z" class="st1"/>
      </g>
      <path id="svg_37" d="m292.209988,195.879994l-0.24,0.15c0.06,-0.05 0.13,-0.09 0.21,-0.13c0,0 0.01,0 0.01,-0.01c0.01,0 0.02,-0.01 0.02,-0.01z" class="st1"/>
      <path id="svg_38" d="m287.559988,198.949994c0,-0.01 0.01,-0.03 0.01,-0.04c-0.11,-0.01 -0.22,-0.02 -0.35,-0.03c0,0 -0.05,-0.28 -0.06,-0.4c0.01,0.02 0.04,0.04 0.08,0.04c0.11,0.01 0.23,0.02 0.34,0.04c0.08,0.01 0.1,0.01 0.12,-0.03c0,-0.01 -0.11,0.31 -0.14,0.42z" class="st0"/>
      <path id="svg_39" d="m292.839988,198.449994c-0.01,0.21 -0.07,0.43 -0.07,0.43l-0.18,0.02l-0.16,0.01c-0.03,-0.13 -0.12,-0.34 -0.12,-0.34c0.16,-0.02 0.32,-0.03 0.47,-0.05c0.02,-0.01 0.04,-0.05 0.06,-0.07z" class="st0"/>
      <g id="svg_40">
       <path id="svg_41" d="m291.919988,196.879994l0.11,0l0,0.02l-0.08,0l0,0.06l0.07,0l0,0.02l-0.07,0l0,0.08l-0.03,0c0,0 0,-0.18 0,-0.18z" class="st1"/>
       <path id="svg_42" d="m292.159988,197.069994l-0.04,-0.08l-0.03,0l0,0.07l-0.03,0l0,-0.18l0.06,0c0.04,0 0.07,0.01 0.07,0.05c0,0.03 -0.01,0.05 -0.04,0.05l0.05,0.09l-0.04,0l0,0zm-0.07,-0.1l0.03,0c0.03,0 0.04,-0.01 0.04,-0.03s-0.01,-0.03 -0.04,-0.03l-0.03,0l0,0.06z" class="st1"/>
       <path id="svg_43" d="m292.219988,196.969994c0,-0.06 0.03,-0.09 0.08,-0.09s0.08,0.04 0.08,0.09c0,0.06 -0.03,0.1 -0.08,0.1s-0.08,-0.04 -0.08,-0.1zm0.13,0c0,-0.04 -0.02,-0.07 -0.05,-0.07s-0.05,0.03 -0.05,0.07s0.02,0.07 0.05,0.07c0.02,0.01 0.05,-0.02 0.05,-0.07z" class="st1"/>
       <path id="svg_44" d="m292.409988,196.879994l0.03,0l0.06,0.11l0.02,0.04l0,0c0,-0.02 0,-0.04 0,-0.06l0,-0.09l0.03,0l0,0.18l-0.03,0l-0.06,-0.1l-0.02,-0.04l0,0c0,0.02 0,0.04 0,0.06l0,0.09l-0.03,0l0,-0.19z" class="st1"/>
       <path id="svg_45" d="m292.629988,196.909994l-0.05,0l0,-0.03l0.14,0l0,0.02l-0.06,0l0,0.16l-0.03,0l0,-0.15z" class="st1"/>
       <path id="svg_46" d="m292.799988,196.879994l0.11,0l0,0.02l-0.08,0l0,0.05l0.07,0l0,0.02l-0.07,0l0,0.06l0.08,0l0,0.02l-0.11,0c0,0.02 0,-0.17 0,-0.17z" class="st1"/>
       <path id="svg_47" d="m292.949988,196.879994l0.03,0l0.06,0.11l0.02,0.04l0,0c0,-0.02 0,-0.04 0,-0.06l0,-0.09l0.03,0l0,0.18l-0.03,0l-0.07,-0.1l-0.01,-0.04l0,0c0,0.02 0,0.04 0,0.06l0,0.09l-0.03,0l0,-0.19l0,0z" class="st1"/>
       <path id="svg_48" d="m293.129988,196.879994l0.05,0c0.06,0 0.09,0.03 0.09,0.09s-0.03,0.1 -0.09,0.1l-0.05,0l0,-0.19l0,0zm0.05,0.16c0.04,0 0.06,-0.02 0.06,-0.07s-0.02,-0.06 -0.06,-0.06l-0.02,0l0,0.14l0.02,-0.01l0,0z" class="st1"/>
      </g>
      <g id="svg_49">
       <path id="svg_50" d="m292.109988,197.559994l0.03,-0.04c0.03,0.03 0.06,0.04 0.1,0.04s0.07,-0.02 0.07,-0.05s-0.02,-0.04 -0.06,-0.06l-0.05,-0.02c-0.03,-0.01 -0.07,-0.04 -0.07,-0.09c0,-0.06 0.05,-0.1 0.12,-0.1c0.04,0 0.08,0.02 0.11,0.05l-0.03,0.03c-0.03,-0.02 -0.05,-0.03 -0.08,-0.03c-0.04,0 -0.06,0.02 -0.06,0.05s0.03,0.04 0.06,0.05l0.05,0.02c0.04,0.02 0.07,0.04 0.07,0.1s-0.05,0.1 -0.13,0.1c-0.05,0 -0.1,-0.02 -0.13,-0.05z" class="st1"/>
       <path id="svg_51" d="m292.439988,197.239994l0.09,0c0.11,0 0.17,0.06 0.17,0.18c0,0.12 -0.06,0.18 -0.17,0.18l-0.1,0l0.01,-0.36l0,0zm0.08,0.32c0.08,0 0.12,-0.05 0.12,-0.14c0,-0.09 -0.04,-0.13 -0.12,-0.13l-0.03,0l0,0.27c0,0 0.03,0 0.03,0z" class="st1"/>
       <path id="svg_52" d="m292.779988,197.239994l0.06,0l0,0.17l0,0l0.14,-0.17l0.06,0l-0.12,0.14l0.14,0.22l-0.07,0l-0.1,-0.18l-0.06,0.07l0,0.11l-0.05,0l0,-0.36l0,0z" class="st1"/>
      </g>
      <g id="svg_53">
       <path id="svg_54" d="m286.859988,196.979994c0,-0.06 0.04,-0.1 0.08,-0.1c0.02,0 0.04,0.01 0.05,0.02l-0.01,0.02c-0.01,-0.01 -0.03,-0.01 -0.04,-0.01c-0.03,0 -0.05,0.03 -0.05,0.07s0.02,0.07 0.05,0.07c0.02,0 0.03,-0.01 0.04,-0.02l0.02,0.01c-0.02,0.02 -0.04,0.03 -0.06,0.03c-0.05,0 -0.08,-0.03 -0.08,-0.09z" class="st1"/>
       <path id="svg_55" d="m287.009988,196.969994c0,-0.06 0.03,-0.09 0.08,-0.09c0.05,0 0.08,0.04 0.08,0.09c0,0.06 -0.03,0.1 -0.08,0.1c-0.05,0 -0.08,-0.04 -0.08,-0.1zm0.13,0c0,-0.04 -0.02,-0.07 -0.05,-0.07s-0.05,0.03 -0.05,0.07s0.02,0.07 0.05,0.07s0.05,-0.02 0.05,-0.07z" class="st1"/>
       <path id="svg_56" d="m287.209988,196.879994l0.03,0l0.06,0.11l0.02,0.04l0,0c0,-0.02 0,-0.04 0,-0.06l0,-0.09l0.03,0l0,0.18l-0.04,0l-0.06,-0.1l-0.02,-0.04l0,0c0,0.02 0,0.04 0,0.06l0,0.09l-0.02,0l0,-0.19l0,0z" class="st1"/>
       <path id="svg_57" d="m287.429988,196.909994l-0.06,0l0,-0.03l0.14,0l0,0.02l-0.06,0l0,0.16l-0.02,0c0,0.01 0,-0.15 0,-0.15z" class="st1"/>
       <path id="svg_58" d="m287.639988,197.069994l-0.04,-0.08l-0.03,0l0,0.07l-0.03,0l0,-0.18l0.06,0c0.04,0 0.07,0.01 0.07,0.05c0,0.03 -0.01,0.05 -0.04,0.05l0.04,0.08l-0.03,0.01l0,0zm-0.07,-0.1l0.03,0c0.03,0 0.04,-0.01 0.04,-0.03s-0.01,-0.03 -0.04,-0.03l-0.03,0l0,0.06z" class="st1"/>
       <path id="svg_59" d="m287.689988,196.969994c0,-0.06 0.03,-0.09 0.08,-0.09s0.08,0.04 0.08,0.09c0,0.06 -0.03,0.1 -0.08,0.1c-0.04,0 -0.08,-0.04 -0.08,-0.1zm0.13,0c0,-0.04 -0.02,-0.07 -0.05,-0.07s-0.05,0.03 -0.05,0.07s0.02,0.07 0.05,0.07s0.05,-0.02 0.05,-0.07z" class="st1"/>
       <path id="svg_60" d="m287.889988,196.879994l0.03,0l0,0.16l0.08,0l0,0.02l-0.11,0c0,0.01 0,-0.18 0,-0.18z" class="st1"/>
      </g>
      <g id="svg_61">
       <path id="svg_62" d="m287.139988,197.499994l-0.13,0l-0.03,0.1l-0.06,0l0.12,-0.36l0.07,0l0.12,0.36l-0.06,0l-0.03,-0.1zm-0.02,-0.04l-0.01,-0.05c-0.01,-0.04 -0.02,-0.08 -0.03,-0.12l0,0c-0.02,0.04 -0.03,0.08 -0.04,0.12l-0.01,0.05l0.09,0z" class="st1"/>
       <path id="svg_63" d="m287.279988,197.239994l0.11,0c0.08,0 0.14,0.03 0.14,0.11s-0.06,0.12 -0.14,0.12l-0.06,0l0,0.13l-0.05,0l0,-0.36l0,0zm0.1,0.18c0.06,0 0.09,-0.02 0.09,-0.07s-0.03,-0.06 -0.09,-0.06l-0.05,0l0,0.13l0.05,0z" class="st1"/>
       <path id="svg_64" d="m287.589988,197.239994l0.11,0c0.08,0 0.14,0.03 0.14,0.11s-0.06,0.12 -0.14,0.12l-0.05,0l0,0.13l-0.06,0l0,-0.36l0,0zm0.11,0.18c0.06,0 0.09,-0.02 0.09,-0.07s-0.03,-0.06 -0.09,-0.06l-0.05,0l0,0.13l0.05,0z" class="st1"/>
      </g>
      <path id="svg_65" d="m292.109988,204.409994c-0.01,-0.01 -0.02,-0.02 -0.04,-0.03c-0.08,-0.06 -0.17,-0.12 -0.26,-0.19c-0.05,-0.04 -0.09,-0.03 -0.14,0.01c-0.16,0.17 -0.45,0.19 -0.64,0.05c-0.17,-0.12 -0.23,-0.4 -0.12,-0.61c0.15,-0.28 0.5,-0.35 0.77,-0.15c0.05,0.04 0.09,0.04 0.15,0c0.08,-0.06 0.17,-0.12 0.25,-0.18c0.01,-0.01 0.02,-0.01 0.02,-0.02c0.08,-0.06 0.08,-0.09 0,-0.17c-0.02,-0.01 -0.03,-0.03 -0.05,-0.04c-0.23,-0.18 -0.48,-0.27 -0.76,-0.26c-0.01,0 -0.02,0 -0.04,0c-0.25,0 -0.47,0.09 -0.65,0.25c-0.01,0.01 -0.03,0.03 -0.05,0.05c-0.02,0.02 -0.05,0.05 -0.07,0.08c-0.01,0.01 -0.02,0.02 -0.03,0.04c-0.01,0.01 -0.02,0.02 -0.03,0.04c-0.01,0.02 -0.03,0.05 -0.05,0.08c-0.05,0.09 -0.08,0.18 -0.1,0.28c-0.01,0.08 -0.02,0.15 -0.02,0.22s0.01,0.14 0.02,0.21c0.07,0.36 0.31,0.65 0.64,0.77l0.01,0c0.11,0.04 0.22,0.06 0.34,0.06l0,0c0.02,0 0.03,0 0.05,0c0.31,0.01 0.58,-0.12 0.79,-0.35c0.06,-0.06 0.07,-0.09 0.01,-0.14z" class="st1"/>
      <path id="svg_66" d="m289.109988,203.289994c-0.47,0 -0.86,0.37 -0.86,0.82s0.39,0.82 0.86,0.82c0.47,0 0.86,-0.37 0.86,-0.82c0,-0.46 -0.39,-0.82 -0.86,-0.82zm0,1.24c-0.25,0 -0.45,-0.19 -0.45,-0.43s0.2,-0.43 0.45,-0.43s0.45,0.19 0.45,0.43s-0.21,0.43 -0.45,0.43z" class="st1"/>
     </g>
    </g>
    <rect x="285.299988" y="193.899994" id="svg_67" height="12.2" width="9.4" class="st2"/>
   </g>
  </g>
 </g>
</svg>