<?xml version="1.0" encoding="utf-8"?>
<!-- Generator: Adobe Illustrator 26.0.2, SVG Export Plug-In . SVG Version: 6.00 Build 0)  -->
<svg version="1.1" id="图层_1" xmlns="http://www.w3.org/2000/svg" xmlns:xlink="http://www.w3.org/1999/xlink" x="0px" y="0px"
	 viewBox="0 0 94 122" style="enable-background:new 0 0 94 122;" xml:space="preserve">
<style type="text/css">
	.st0{fill:none;}
	.st1{fill:#59666E;}
	.st2{fill:#1E353A;}
</style>
<g>
	<rect id="canvas_background" x="-1" y="-1" class="st0" width="582" height="402"/>
</g>
<g id="图层_2_00000159469115819123346490000011443698822907598777_">
</g>
<path id="svg_2" class="st1" d="M58.2,25.9c0,0,1.7,1,2.7,2.2l1.6-1.1c0,0,0-0.9,0-1.8c0,0-1.7-2-3.3-3.1
	C59.2,22.1,58.2,25.9,58.2,25.9z"/>
<path id="svg_3" class="st1" d="M36.1,25.9c0,0-1.7,1-2.7,2.2L31.8,27c0,0,0-0.9,0-1.8c0,0,1.7-2,3.3-3.1
	C35.1,22.1,36.1,25.9,36.1,25.9z"/>
<path id="svg_4" class="st2" d="M68.3,19.5c-1.6-1.2-3.1-2.5-4.7-3.8c-0.3-0.2-0.7-0.4-1-0.6c-1-0.5-1.8-0.3-2.3,0.7
	c-0.5,0.8-0.6,1.7-0.4,2.6c0.1,0.3,0.5,0.6,0.8,0.8c0.6,0.3,1.2,0.7,1.7,1c0.3,0.2,0.7,0.5,1,0.7c0.5,0.4,1,0.8,1.5,1.2l0.2,0.2
	l1.8-1.4c0.6-0.5,1.3-0.9,2.1-1.3C68.8,19.8,68.5,19.6,68.3,19.5z M64.9,22.2l0.2,0.2c0.5-0.5,1.1-0.9,1.8-1.4L64.9,22.2z
	 M88.7,38.6c-0.1-1.3-0.3-2.6-0.6-3.9c-0.1-0.6-0.5-0.8-1.1-0.7c-0.3,0.1-0.6,0.2-1.1,0.3c0-1,0-1.9,0-2.7c0-0.1,0.2-0.3,0.4-0.4
	c0.9-0.4,0.9-0.4,0.5-1.3c-2.9-7-7.2-13-13-17.8C64.5,4.3,53.7,0.7,41.4,2.4c-5.3,0.7-10.3,2.5-14.9,5.2C18.9,12,13.1,18.1,9,25.9
	c-0.7,1.4-1.3,2.8-1.9,4.2c-0.2,0.5-0.2,0.9,0.5,1.1c0.2,0,0.5,0.3,0.5,0.4c0,0.9,0,1.7,0,2.7c-0.3-0.1-0.6-0.1-0.8-0.2
	c-0.9-0.3-1.3,0-1.5,0.9c-0.6,4.1-0.9,8.2-0.3,12.4c1.5,10.7,6.6,19.4,15,26.2c1.4,1.1,1.6,1,2-0.8c0.2-0.9,0.4-1.8,0.5-2.7
	c2,0.6,4,1.2,5.9,1.8c0,0.3,0,0.7,0,1c-0.1,1.7-0.1,3.4-0.2,5.1c0,0.8,0.3,1.1,0.9,1.4c7.3,3,14.8,4.2,22.6,3.3
	c4.3-0.5,8.4-1.7,12.4-3.3c0.5-0.2,0.7-0.5,0.7-1c-0.1-1.4-0.1-2.8-0.2-4.3c0-0.7,0-1.4,0-2.1c1.9-0.6,3.9-1.1,5.9-1.7
	c0.2,1.1,0.4,2.1,0.6,3.1c0.3,1.2,0.7,1.3,1.6,0.6c4.6-3.4,8.3-7.7,11-12.8C87.9,54,89.5,46.6,88.7,38.6z M81.5,32.8
	c0,4.6-3.8,8.2-8.7,8.2c-4.6,0-8.3-3.7-8.3-8.2c0-4.8,3.7-8.6,8.5-8.6C77.7,24.2,81.5,28.1,81.5,32.8z M55.2,9.9
	c0.2-0.2,0.5-0.4,0.8-0.4c0.8,0.2,1.6,0.4,2.4,0.7c4.7,1.6,8.8,4.2,12.4,7.6c0.1,0.1,0.2,0.2,0.4,0.4c-0.7,0.5-1.4,0.9-2.1,1.3
	c-0.1,0-0.1,0-0.2,0.1c-0.2,0.1-0.5-0.1-0.6-0.2c-1.6-1.2-3.1-2.5-4.7-3.8c-0.3-0.2-0.7-0.4-1-0.6c-1-0.5-1.8-0.3-2.3,0.7
	c-0.5,0.8-0.6,1.7-0.4,2.6c0.1,0.3,0.5,0.6,0.8,0.8c0.6,0.3,1.2,0.7,1.7,1c0.3,0.2,0.7,0.5,1,0.7c0.5,0.4,1,0.8,1.5,1.2l0.2,0.2
	c-2.7,2.4-4.1,4.9-4.8,6.7c-0.2,0.9-0.5,1.8-0.8,2.8c-1.1,0-2.3,0-3.4,0c-0.1,0-0.3-0.1-0.4-0.3c-0.2-0.5-0.3-1-0.4-1.5
	c0-0.1,0-0.2,0.1-0.3c0.8-1.1,1.6-2.1,2.5-3.2c0,0,0,0,0-0.1c1.4-2,1.5-6.3,1.5-7c0-0.1,0-0.1,0-0.1c-0.1-3-1.1-5.8-3.3-8.2
	c-0.2-0.2-0.5-0.4-0.6-0.7C55.3,10.3,55.2,10,55.2,9.9z M60.8,37.7c-1.4-0.5-2.5-0.8-3.7-1.2v-0.2c0.9-0.1,1.8-0.2,2.7-0.4
	c0.1,0,0.2,0.1,0.3,0.2C60.3,36.6,60.5,37,60.8,37.7z M40.4,15.1c3.5-5.1,10.3-4.3,13.2,0.4c0.9,1.5,1.3,3,1.3,4.7
	c0,3-1.3,5.5-3.5,7.4c-2.2,1.9-5.7,2.1-8.2,0.5C39.2,25.6,37.2,19.8,40.4,15.1z M42.2,34.2c0-0.3-0.1-0.6-0.1-1
	c3.2,1.2,6.3,1.2,9.5,0c0,0.9-0.1,1.7-0.2,2.5c0,1,0.2,2,0.8,2.9c0.1,0.2,0.1,0.6-0.1,0.8c-1,1.4-2.4,2.1-4.1,2.3
	c-2.2,0.2-4.2,0-5.9-1.6c-0.8-0.8-0.9-1-0.3-2C42.5,36.8,42.3,35.5,42.2,34.2z M24,17.1c3.9-3.5,8.4-6,13.5-7.5
	c0.6-0.2,1-0.1,1.3,0.6c-0.4,0.5-0.9,1-1.3,1.5c-2.4,2.9-3.2,6.2-2.8,9.9c0.3,3.1,1.6,5.8,3.8,8.1c0.1,0.1,0.2,0.4,0.2,0.6
	c-0.1,0.5-0.3,1-0.5,1.6c-1.2-0.1-2.4-0.1-3.7-0.2c-0.4-3.9-2.2-7-5.3-9.6c0.9-0.7,1.8-1.5,2.8-2.1c0.5-0.4,1.1-0.7,1.7-1
	c0.5-0.2,0.7-0.6,0.6-1.1c0-0.5-0.1-1-0.2-1.4c-0.3-1.4-1.5-2.1-2.7-1.2c-1.8,1.2-3.4,2.6-5.1,3.9c-0.3,0.2-0.5,0.5-0.8,0.7
	c-0.8-0.5-1.6-1-2.5-1.6C23.2,17.9,23.6,17.5,24,17.1z M36.4,36.3c0,0.1,0,0.1,0,0.2c-1,0.4-2,0.8-3.2,1.2c0.3-0.6,0.4-1.1,0.7-1.5
	c0.1-0.1,0.3-0.3,0.4-0.2C34.9,36,35.6,36.2,36.4,36.3z M21.1,24.2c4.6,0,8.3,4,8.4,8.7c0,3.6-3.1,8.2-8.4,8.1
	c-4.7-0.1-8.4-3.6-8.3-8.2C12.8,27.9,16.4,24.1,21.1,24.2z M22.4,50.5c0,0.1,0,0.2,0,0.2c-1,4.5-1.9,8.9-2.8,13.4
	c-6.1-6.5-8.6-14.3-8.5-23c0.7,0.6,1.3,1.2,2,1.8c0.1,0.1,0.1,0.3,0.1,0.4c0,3.5,0.7,7,1.6,10.3c0.1,0.2,0.1,0.4,0.2,0.5
	c0.4,1.1,0.8,1.3,1.8,0.8c1-0.5,1.9-1,2.9-1.5c0.4-0.2,0.5-0.5,0.4-0.9c-0.3-0.9-0.6-1.8-0.9-2.8c1.3,0.1,2.4,0.2,3.5,0.3
	C22.5,50.2,22.5,50.3,22.4,50.5z M22.6,46.5c-1.1-0.2-2.3-0.3-3.4-0.4c-0.4,0-0.6-0.1-0.7-0.3c0-0.1,0-0.2,0-0.4h5.6
	c0,0,0,0.2-0.1,0.3c-0.1,0.2-0.1,0.4-0.2,0.5C23.6,46.6,23.4,46.6,22.6,46.5z M29.7,62.2c-0.3,1.7-0.5,3.4-0.8,5.3
	c-1-0.3-2-0.6-2.9-0.8c-0.6-0.2-1.2-0.4-1.8-0.6c-0.2-0.1-0.4-0.4-0.4-0.6c0.4-2,0.8-4,1.3-6c1.3,0.5,2.6,1,3.8,1.4
	C29.7,61.1,29.8,61.4,29.7,62.2z M38.7,61.6c-1.1,1-1.5,2.3-1.5,3.8c0,3.2,0,6.4,0,9.6v1.1C36,75.7,35,75.4,34,75
	c-0.2-0.1-0.4-0.4-0.4-0.7c0.1-3.7,0.2-7.4,0.3-11.1c0-0.7,0.1-1.3,0.1-2h5.1C39,61.3,38.9,61.5,38.7,61.6z M52.6,76.9
	c-2.7,0.5-5.4,0.6-8.1,0.4c-1-0.1-1.9-0.2-2.9-0.4c-0.2,0-0.5-0.3-0.5-0.5c0-3.6,0-7.3,0-10.9c0-1.1,0.6-1.7,1.4-2.3
	c2.7,1.8,5.5,1.9,8.2,0.2c0.1-0.1,0.3-0.1,0.4-0.1c0.6,0.5,1.3,0.9,1.4,1.8C52.6,69,52.6,72.9,52.6,76.9z M43.9,57.4
	c0-1.6,1.4-3,3-2.9c1.7,0,3.1,1.4,3.1,3.1c0,1.7-1.4,3-3,2.9C45.2,60.4,43.9,59.2,43.9,57.4z M60.1,75.1c-1,0.4-2.1,0.7-3.4,1.1
	v-3.3c0-1.9,0-3.9,0-5.8c0-3.3,0-3.3-1.9-6h5.1c0.1,0.7,0.2,1.4,0.2,2c0.1,3.8,0.3,7.6,0.4,11.4C60.4,74.7,60.2,75,60.1,75.1z
	 M61.8,54.9c-0.2-0.5-0.4-0.9-1-0.8c-0.6,0.1-0.9,0.4-0.9,1v1.8c-1.8,0-3.5,0-5.2,0c-0.2,0-0.4-0.3-0.5-0.6c-0.5-2-1.5-3.5-3.1-4.7
	c-4.2-2.9-10-0.8-11.3,4.2c-0.1,0.3-0.2,0.7-0.3,1.1H34c0-0.6,0-1.2-0.1-1.8c0-0.5-0.2-1-0.8-1c-0.6-0.1-1,0.2-1.1,0.8
	c-0.2,0.7-0.4,1.4-0.6,2.3c-1.9-0.7-3.7-1.3-5.5-2.1c-0.2-0.1-0.3-0.6-0.2-0.9c0.4-1.7,0.7-3.3,1.2-4.9c0.3-1.1,0.7-2.2,1.1-3.2
	c0.5-1.4,1.5-2.4,3-2.9c2.2-0.8,4.4-1.5,6.6-2.3c2,3.7,5.3,5.1,9.3,5.1c4,0,7.2-1.4,9.4-5c2.5,0.8,4.9,1.6,7.3,2.5
	c1.3,0.5,2,1.5,2.4,2.8c0.8,2.6,1.5,5.2,2.2,7.7c0.1,0.4,0.1,0.8,0.2,1.3c-1.9,0.7-3.8,1.4-5.8,2.1C62.2,56.4,62,55.6,61.8,54.9z
	 M64.9,67.5c-0.3-2.1-0.5-3.9-0.8-5.7c0-0.2,0.1-0.6,0.3-0.7c1.4-0.6,2.8-1,4.3-1.6c0.5,2.2,0.9,4.3,1.4,6.5
	C68.4,66.5,66.7,67,64.9,67.5z M69.8,45.3h5.5c0.1,0,0.1,0.1,0.2,0.1c-0.2,0.2-0.3,0.5-0.5,0.6c-1.6,0.2-3.1,0.4-4.8,0.5
	C70.1,46.2,70,45.7,69.8,45.3z M74.4,64.2c-1-4.8-1.9-9.4-2.9-14.2c0.5,0,1.1-0.1,1.6-0.1l1.8-0.1c-0.3,0.9-0.5,1.6-0.8,2.3
	c-0.4,1.1-0.3,1.1,0.7,1.6c0.8,0.4,1.6,0.8,2.5,1.2c1,0.5,1.5,0.3,1.8-0.8c0.5-1.8,1-3.6,1.3-5.5c0.3-1.8,0.4-3.6,0.6-5.5
	c0-0.2,0.1-0.3,0.2-0.5c0.6-0.6,1.1-1.1,1.8-1.8C83,49.9,80.4,57.6,74.4,64.2z M68.3,19.5c-1.6-1.2-3.1-2.5-4.7-3.8
	c-0.3-0.2-0.7-0.4-1-0.6c-1-0.5-1.8-0.3-2.3,0.7c-0.5,0.8-0.6,1.7-0.4,2.6c0.1,0.3,0.5,0.6,0.8,0.8c0.6,0.3,1.2,0.7,1.7,1
	c0.3,0.2,0.7,0.5,1,0.7c0.5,0.4,1,0.8,1.5,1.2l2-1.2c0.6-0.5,1.3-0.9,2.1-1.3C68.8,19.8,68.5,19.6,68.3,19.5z"/>
<circle id="svg_5" class="st2" cx="44" cy="17.5" r="1.7"/>
<circle id="svg_6" class="st2" cx="49.9" cy="17.5" r="1.7"/>
<path id="svg_7" class="st2" d="M23.7,103.1c1.1,1.7,2.3,3.4,3.5,5.1c0.2,0.3,0.4,0.6,0.5,0.8c0.4,0.7,0.1,1.3-0.7,1.4
	c-1.5,0.1-3,0.1-4.5,0c-0.4,0-0.8-0.5-1.1-0.8c-1-1.5-2-3-3-4.6c-0.2-0.4-0.5-0.5-0.9-0.5c-0.8,0-1.5,0-2.4,0c0,0.6,0,1.1,0,1.7
	c0,1,0,2.1,0,3.1c0,0.8-0.4,1.1-1.2,1.2c-1.2,0-2.3,0.1-3.5,0c-1,0-1.3-0.3-1.3-1.3c0-6.1,0-12.2,0-18.3c0-0.8,0.3-1.2,1.1-1.2
	c1-0.1,2-0.1,3,0c2.3,0,4.6-0.1,6.9,0.1c3,0.2,5.2,1.8,6.2,4.6c1,2.7,0.8,5.3-1.1,7.6C24.7,102.3,24.2,102.7,23.7,103.1L23.7,103.1z
	 M15.1,99.3c0.2,0,0.3,0.1,0.4,0.1c1.1,0,2.1,0,3.2,0c1.3,0,1.9-0.7,2-1.9c0.1-1.1-0.7-2.2-1.8-2.3c-1.2-0.1-2.5,0-3.8,0
	C15.1,96.6,15.1,97.9,15.1,99.3z"/>
<path id="svg_8" class="st2" d="M77.4,110.6c-2.6,0-4.9-0.7-7-2.2c-1.4-0.9-1.5-1.7-0.6-3.1c0.5-0.7,1-1.3,1.5-1.9
	c0.4-0.5,0.8-0.6,1.4-0.2c1.3,1.1,2.9,1.8,4.6,1.9c0.6,0.1,1.2,0,1.8-0.2c0.5-0.1,1-0.4,0.9-1c-0.1-0.3-0.4-0.8-0.7-0.9
	c-0.8-0.3-1.7-0.5-2.5-0.8c-1.3-0.5-2.7-0.8-3.9-1.5c-3.9-2.2-3.4-6.9-1.3-9.2c2-2.2,4.6-2.7,7.4-2.5c2,0.1,3.9,0.7,5.6,1.9
	c1.3,0.9,1.3,1.4,0.4,2.7c-0.4,0.6-0.8,1.1-1.3,1.7c-0.7,0.8-1,0.9-2,0.4c-0.7-0.3-1.5-0.8-2.2-1c-0.8-0.2-1.8-0.2-2.6-0.1
	c-0.3,0-0.7,0.5-0.7,0.8s0.2,0.8,0.5,0.9c0.9,0.4,1.8,0.6,2.7,0.9c1.1,0.4,2.3,0.7,3.4,1.2c3.7,1.6,4.1,5.6,2.2,8.4
	c-1.4,2.1-3.5,3.2-6,3.5C78.5,110.6,77.9,110.6,77.4,110.6z"/>
<g id="svg_9">
	<path id="svg_10" class="st2" d="M12.1,119.9l-1-1.4h-0.7v1.4H9.6v-3.4h1.5c0.9,0,1.6,0.2,1.6,1c0,0.5-0.4,0.8-1,1l1.1,1.4
		C12.9,119.9,12.1,119.9,12.1,119.9z M10.3,118.1H11c0.7,0,1-0.2,1-0.6s-0.4-0.6-1-0.6h-0.7C10.3,116.9,10.3,118.1,10.3,118.1z"/>
	<path id="svg_11" class="st2" d="M13.4,118.2c0-1.1,0.8-1.8,2-1.8s2,0.7,2,1.8s-0.8,1.8-2,1.8S13.4,119.3,13.4,118.2z M16.7,118.2
		c0-0.8-0.5-1.3-1.2-1.3s-1.2,0.5-1.2,1.3s0.5,1.3,1.2,1.3S16.7,119,16.7,118.2z"/>
	<path id="svg_12" class="st2" d="M18.4,116.5h1.4c0.9,0,1.6,0.2,1.6,0.8c0,0.3-0.2,0.6-0.6,0.7v0c0.5,0.1,0.9,0.3,0.9,0.8
		c0,0.7-0.7,1-1.8,1h-1.5V116.5L18.4,116.5z M19.7,117.9c0.7,0,1-0.2,1-0.5c0-0.4-0.3-0.5-1-0.5h-0.6v1
		C19.1,117.9,19.7,117.9,19.7,117.9z M19.8,119.5c0.7,0,1.1-0.2,1.1-0.6c0-0.4-0.4-0.6-1.1-0.6h-0.7v1.2H19.8z"/>
	<path id="svg_13" class="st2" d="M22.3,118.2c0-1.1,0.8-1.8,2-1.8s2,0.7,2,1.8s-0.8,1.8-2,1.8S22.3,119.3,22.3,118.2z M25.5,118.2
		c0-0.8-0.5-1.3-1.2-1.3s-1.2,0.5-1.2,1.3s0.5,1.3,1.2,1.3S25.5,119,25.5,118.2z"/>
	<path id="svg_14" class="st2" d="M28,117h-1.3v-0.4H30v0.4h-1.4v2.9H28V117z"/>
	<path id="svg_15" class="st2" d="M32,118.2c0-1.1,0.9-1.8,2.1-1.8c0.6,0,1,0.2,1.3,0.4l-0.4,0.3c-0.2-0.2-0.5-0.3-0.9-0.3
		c-0.8,0-1.3,0.5-1.3,1.3c0,0.8,0.5,1.3,1.3,1.3c0.4,0,0.7-0.1,1-0.4l0.4,0.3c-0.4,0.3-0.8,0.5-1.4,0.5C32.8,120,32,119.3,32,118.2z
		"/>
	<path id="svg_16" class="st2" d="M35.8,118.2c0-1.1,0.8-1.8,2-1.8s2,0.7,2,1.8s-0.8,1.8-2,1.8S35.8,119.3,35.8,118.2z M39,118.2
		c0-0.8-0.5-1.3-1.2-1.3s-1.2,0.5-1.2,1.3s0.5,1.3,1.2,1.3S39,119,39,118.2z"/>
	<path id="svg_17" class="st2" d="M40.7,116.5h0.7l1.5,2l0.5,0.7h0c0-0.3-0.1-0.8-0.1-1.1v-1.6h0.7v3.4h-0.7l-1.5-2l-0.5-0.7h0
		c0,0.3,0.1,0.7,0.1,1.1v1.6h-0.7L40.7,116.5C40.7,116.5,40.7,116.5,40.7,116.5z"/>
	<path id="svg_18" class="st2" d="M46.2,117h-1.3v-0.4h3.4v0.4h-1.3v2.9h-0.7V117z"/>
	<path id="svg_19" class="st2" d="M51.5,119.9l-1-1.4h-0.7v1.4H49v-3.4h1.5c0.9,0,1.7,0.2,1.7,1c0,0.5-0.4,0.8-1,1l1.1,1.4
		C52.4,119.9,51.5,119.9,51.5,119.9z M49.8,118.1h0.7c0.7,0,1-0.2,1-0.6s-0.4-0.6-1-0.6h-0.7C49.8,116.9,49.8,118.1,49.8,118.1z"/>
	<path id="svg_20" class="st2" d="M52.9,118.2c0-1.1,0.8-1.8,2-1.8c1.2,0,2,0.7,2,1.8s-0.8,1.8-2,1.8
		C53.7,120,52.9,119.3,52.9,118.2z M56.1,118.2c0-0.8-0.5-1.3-1.2-1.3c-0.8,0-1.2,0.5-1.2,1.3s0.5,1.3,1.2,1.3S56.1,119,56.1,118.2z
		"/>
	<path id="svg_21" class="st2" d="M57.8,116.5h0.7v2.9h1.9v0.4h-2.7C57.8,119.9,57.8,116.5,57.8,116.5z"/>
	<path id="svg_22" class="st2" d="M62.3,119.5l0.4-0.4c0.3,0.2,0.8,0.4,1.2,0.4c0.6,0,0.9-0.2,0.9-0.5c0-0.3-0.3-0.4-0.7-0.6
		l-0.6-0.2c-0.4-0.1-0.9-0.4-0.9-0.9c0-0.5,0.6-0.9,1.5-0.9c0.5,0,1,0.2,1.4,0.4l-0.4,0.3c-0.3-0.2-0.6-0.3-1-0.3
		c-0.5,0-0.8,0.2-0.8,0.4c0,0.3,0.4,0.4,0.7,0.5l0.6,0.2c0.5,0.2,0.9,0.4,0.9,0.9c0,0.6-0.6,1-1.6,1C63.3,120,62.8,119.8,62.3,119.5
		z"/>
	<path id="svg_23" class="st2" d="M67.1,118.6l-1.4-2.1h0.8l0.5,0.9c0.1,0.2,0.3,0.5,0.4,0.8h0c0.2-0.3,0.3-0.5,0.4-0.8l0.5-0.9h0.8
		l-1.4,2.1v1.3h-0.7C67.1,119.9,67.1,118.6,67.1,118.6z"/>
	<path id="svg_24" class="st2" d="M69.3,119.5l0.4-0.4c0.3,0.2,0.8,0.4,1.2,0.4c0.6,0,0.9-0.2,0.9-0.5c0-0.3-0.3-0.4-0.7-0.6
		l-0.6-0.2c-0.4-0.1-0.9-0.4-0.9-0.9c0-0.5,0.6-0.9,1.5-0.9c0.5,0,1,0.2,1.4,0.4l-0.4,0.3c-0.3-0.2-0.6-0.3-1-0.3
		c-0.5,0-0.8,0.2-0.8,0.4c0,0.3,0.4,0.4,0.7,0.5l0.6,0.2c0.5,0.2,0.9,0.4,0.9,0.9c0,0.6-0.6,1-1.6,1C70.3,120,69.8,119.8,69.3,119.5
		z"/>
	<path id="svg_25" class="st2" d="M74.2,117h-1.3v-0.4h3.4v0.4H75v2.9h-0.7C74.2,119.9,74.2,117,74.2,117z"/>
	<path id="svg_26" class="st2" d="M77.1,116.5h2.7v0.4h-2v0.9h1.7v0.4h-1.7v1.1h2.1v0.4h-2.8V116.5L77.1,116.5z"/>
	<path id="svg_27" class="st2" d="M80.8,116.5h0.8l0.8,1.7c0.1,0.2,0.2,0.5,0.3,0.7h0c0.1-0.2,0.2-0.5,0.3-0.7l0.8-1.7h0.8v3.4h-0.7
		v-1.7c0-0.3,0.1-0.8,0.1-1.1h0l-0.4,0.8l-0.8,1.6h-0.4l-0.8-1.6l-0.4-0.8h0c0,0.3,0.1,0.8,0.1,1.1v1.7h-0.7V116.5z"/>
</g>
<path id="svg_28" class="st2" d="M69.3,19.5L66.8,21c0.6-0.5,1.3-0.9,2.1-1.3c0.1,0,0.1,0,0.2-0.1C69.1,19.6,69.2,19.5,69.3,19.5z"
	/>
<path id="svg_29" class="st1" d="M22.4,50.5c0-0.1,0.1-0.3,0.1-0.4c-1.1-0.1-2.2-0.2-3.5-0.3c0,0-0.5-2.9-0.6-4
	c0.1,0.2,0.3,0.3,0.7,0.4c1.1,0.1,2.3,0.2,3.4,0.4c0.8,0.1,1,0.2,1.2-0.3C23.8,46.1,22.7,49.3,22.4,50.5z"/>
<path id="svg_30" class="st1" d="M75.6,45.4c-0.1,2.1-0.7,4.3-0.7,4.3l-1.8,0.1L71.4,50c-0.3-1.3-1.1-3.5-1.1-3.5
	c1.6-0.2,3.2-0.3,4.8-0.5C75.2,46,75.4,45.6,75.6,45.4z"/>
<g id="svg_31">
	<path id="svg_32" class="st2" d="M66.4,29.6h1.1v0.2h-0.8v0.6h0.7v0.2h-0.7v0.8h-0.3C66.4,31.4,66.4,29.6,66.4,29.6z"/>
	<path id="svg_33" class="st2" d="M68.8,31.5l-0.4-0.7h-0.3v0.7h-0.3v-1.9h0.6c0.4,0,0.7,0.1,0.7,0.5c0,0.3-0.2,0.5-0.4,0.5l0.4,0.8
		L68.8,31.5C68.8,31.4,68.8,31.5,68.8,31.5z M68.1,30.5h0.3c0.3,0,0.4-0.1,0.4-0.3s-0.2-0.3-0.4-0.3h-0.3V30.5z"/>
	<path id="svg_34" class="st2" d="M69.3,30.5c0-0.6,0.3-1,0.8-1s0.8,0.4,0.8,1s-0.3,1-0.8,1S69.3,31.1,69.3,30.5z M70.6,30.5
		c0-0.4-0.2-0.7-0.5-0.7s-0.5,0.3-0.5,0.7c0,0.4,0.2,0.7,0.5,0.7S70.6,30.9,70.6,30.5z"/>
	<path id="svg_35" class="st2" d="M71.3,29.6h0.3l0.6,1.1l0.2,0.4h0c0-0.2,0-0.4,0-0.6v-0.9h0.3v1.8h-0.3l-0.6-1.1L71.6,30h0
		c0,0.2,0,0.4,0,0.6v0.9h-0.3V29.6z"/>
	<path id="svg_36" class="st2" d="M73.5,29.9H73v-0.2h1.4v0.2h-0.5v1.6h-0.3V29.9z"/>
	<path id="svg_37" class="st2" d="M75.2,29.6h1.1v0.2h-0.8v0.5h0.7v0.2h-0.7v0.6h0.8v0.2h-1.1C75.2,31.5,75.2,29.6,75.2,29.6z"/>
	<path id="svg_38" class="st2" d="M76.7,29.6H77l0.6,1.1l0.2,0.4h0c0-0.2,0-0.4,0-0.6v-0.9h0.3v1.8h-0.3l-0.6-1.1L77,30h0
		c0,0.2,0,0.4,0,0.6v0.9h-0.3L76.7,29.6L76.7,29.6z"/>
	<path id="svg_39" class="st2" d="M78.6,29.6H79c0.6,0,0.9,0.3,0.9,0.9s-0.3,0.9-0.9,0.9h-0.5L78.6,29.6L78.6,29.6z M79,31.2
		c0.4,0,0.6-0.2,0.6-0.7c0-0.5-0.2-0.7-0.6-0.7h-0.2v1.4H79z"/>
</g>
<g id="svg_40">
	<path id="svg_41" class="st2" d="M68.3,36.4l0.3-0.4c0.3,0.3,0.6,0.4,1,0.4c0.4,0,0.7-0.2,0.7-0.5c0-0.3-0.2-0.4-0.6-0.6l-0.5-0.2
		c-0.3-0.2-0.7-0.4-0.7-1c0-0.6,0.5-1,1.2-1c0.4,0,0.8,0.2,1.1,0.5L70.4,34c-0.2-0.2-0.5-0.3-0.8-0.3c-0.4,0-0.6,0.2-0.6,0.5
		c0,0.3,0.3,0.4,0.6,0.5l0.5,0.2c0.4,0.2,0.7,0.5,0.7,1c0,0.6-0.5,1-1.3,1C69.1,36.9,68.6,36.7,68.3,36.4z"/>
	<path id="svg_42" class="st2" d="M71.5,33.2h0.9c1.1,0,1.8,0.6,1.8,1.8s-0.6,1.8-1.7,1.8h-1V33.2z M72.4,36.4
		c0.8,0,1.2-0.5,1.2-1.4c0-0.9-0.4-1.3-1.2-1.3h-0.3v2.7H72.4z"/>
	<path id="svg_43" class="st2" d="M75,33.2h0.6v1.7h0l1.4-1.7h0.6l-1.1,1.4l1.3,2.2h-0.6l-1-1.8l-0.6,0.7v1.1H75L75,33.2L75,33.2z"
		/>
</g>
<g id="svg_44">
	<path id="svg_45" class="st2" d="M15.4,30.5c0-0.6,0.4-1,0.8-1c0.2,0,0.4,0.1,0.5,0.2L16.5,30c-0.1-0.1-0.2-0.2-0.4-0.2
		c-0.3,0-0.5,0.3-0.5,0.7c0,0.4,0.2,0.7,0.5,0.7c0.2,0,0.3-0.1,0.4-0.2l0.2,0.2c-0.1,0.2-0.3,0.3-0.6,0.3
		C15.7,31.5,15.4,31.1,15.4,30.5z"/>
	<path id="svg_46" class="st2" d="M16.9,30.5c0-0.6,0.3-1,0.8-1s0.8,0.4,0.8,1s-0.3,1-0.8,1S16.9,31.1,16.9,30.5z M18.2,30.5
		c0-0.4-0.2-0.7-0.5-0.7s-0.5,0.3-0.5,0.7c0,0.4,0.2,0.7,0.5,0.7S18.2,30.9,18.2,30.5z"/>
	<path id="svg_47" class="st2" d="M18.9,29.6h0.3l0.6,1.1l0.2,0.4h0c0-0.2,0-0.4,0-0.6v-0.9h0.3v1.8h-0.3l-0.6-1.1L19.1,30h0
		c0,0.2,0,0.4,0,0.6v0.9h-0.3L18.9,29.6L18.9,29.6z"/>
	<path id="svg_48" class="st2" d="M21.1,29.9h-0.5v-0.2h1.4v0.2h-0.5v1.6h-0.3C21.1,31.4,21.1,29.9,21.1,29.9z"/>
	<path id="svg_49" class="st2" d="M23.2,31.5l-0.4-0.7h-0.3v0.7h-0.3v-1.9h0.6c0.4,0,0.7,0.1,0.7,0.5c0,0.3-0.1,0.5-0.4,0.5l0.5,0.8
		L23.2,31.5C23.2,31.4,23.2,31.5,23.2,31.5z M22.5,30.5h0.3c0.3,0,0.4-0.1,0.4-0.3s-0.1-0.3-0.4-0.3h-0.3V30.5z"/>
	<path id="svg_50" class="st2" d="M23.8,30.5c0-0.6,0.3-1,0.8-1s0.8,0.4,0.8,1s-0.3,1-0.8,1S23.8,31.1,23.8,30.5z M25.1,30.5
		c0-0.4-0.2-0.7-0.5-0.7S24,30.1,24,30.5c0,0.4,0.2,0.7,0.5,0.7S25.1,30.9,25.1,30.5z"/>
	<path id="svg_51" class="st2" d="M25.7,29.6H26v1.6h0.8v0.2h-1.1C25.7,31.5,25.7,29.6,25.7,29.6z"/>
</g>
<g id="svg_52">
	<path id="svg_53" class="st2" d="M18.2,35.8h-1.3l-0.3,1H16l1.2-3.6h0.7l1.2,3.6h-0.6C18.5,36.9,18.2,35.8,18.2,35.8z M18,35.4
		l-0.1-0.5c-0.1-0.4-0.2-0.8-0.3-1.2h0c-0.1,0.4-0.2,0.8-0.3,1.2l-0.1,0.5H18z"/>
	<path id="svg_54" class="st2" d="M19.6,33.2h1.1c0.8,0,1.4,0.3,1.4,1.1c0,0.8-0.6,1.2-1.4,1.2h-0.5v1.4h-0.6L19.6,33.2L19.6,33.2z
		 M20.6,35c0.6,0,0.9-0.2,0.9-0.7s-0.3-0.6-0.9-0.6h-0.5V35C20.1,35,20.6,35,20.6,35z"/>
	<path id="svg_55" class="st2" d="M22.8,33.2h1.1c0.8,0,1.4,0.3,1.4,1.1c0,0.8-0.6,1.2-1.4,1.2h-0.5v1.4h-0.6L22.8,33.2L22.8,33.2z
		 M23.8,35c0.6,0,0.9-0.2,0.9-0.7s-0.3-0.6-0.9-0.6h-0.5V35C23.3,35,23.8,35,23.8,35z"/>
</g>
<path id="svg_56" class="st2" d="M68.3,105.4c-0.1-0.1-0.2-0.2-0.4-0.3c-0.8-0.6-1.7-1.2-2.6-1.9c-0.5-0.4-0.9-0.3-1.4,0.1
	c-1.6,1.7-4.5,1.9-6.4,0.5c-1.9-1.4-2.5-4.2-1.4-6.3c1.5-2.8,5-3.5,7.7-1.5c0.5,0.4,0.9,0.4,1.5,0c0.9-0.7,1.8-1.3,2.6-1.9
	c0.1-0.1,0.1-0.1,0.2-0.1c0.8-0.6,0.8-0.9,0-1.7c-0.2-0.2-0.3-0.3-0.5-0.4c-2.3-1.8-4.8-2.8-7.6-2.7c-0.1,0-0.2,0-0.4,0
	c-2.5,0-4.8,0.9-6.5,2.5c-0.2,0.2-0.4,0.3-0.6,0.5c-0.2,0.2-0.5,0.5-0.7,0.8c-0.1,0.1-0.2,0.3-0.3,0.4c-0.1,0.1-0.2,0.3-0.3,0.4
	c-0.2,0.3-0.3,0.6-0.5,0.9c-0.5,0.9-0.8,1.8-1,2.8c-0.1,0.7-0.2,1.4-0.2,2.2c0,0.7,0.1,1.4,0.2,2.1c0.7,3.6,3.2,6.5,6.4,7.8
	c0,0,0.1,0,0.1,0c1.1,0.4,2.2,0.6,3.4,0.6h0c0.2,0,0.3,0,0.5,0c3.2,0.1,5.8-1.2,7.9-3.5C68.7,106.2,68.8,105.9,68.3,105.4z"/>
<path id="svg_57" class="st2" d="M38,94.1c-4.8,0-8.6,3.7-8.6,8.3s3.9,8.3,8.6,8.3c4.8,0,8.7-3.7,8.7-8.3S42.8,94.1,38,94.1z
	 M38,106.6c-2.5,0-4.5-1.9-4.5-4.3s2-4.3,4.5-4.3c2.5,0,4.5,1.9,4.5,4.3S40.5,106.6,38,106.6z"/>
</svg>
