<svg width="122" height="94" xmlns="http://www.w3.org/2000/svg">
 <style type="text/css">.st0{fill:#59666E;}
	.st1{fill:#1E353A;}
	.st2{fill:#5C6B72;}
	.st3{fill:none;}</style>

 <g>
  <title>background</title>
  <rect fill="none" id="canvas_background" height="402" width="582" y="-1" x="-1"/>
 </g>
 <g>
  <title>Layer 1</title>
  <g id="svg_1">
   <g id="图层_1_00000103232212798426429640000006909906054486944915_">
    <g id="svg_2">
     <path id="svg_3" d="m68.51,20.31c0,0 1.3,0.69 2.07,1.69l1.23,-0.84c0,0 0,-0.61 0,-1.38c0,0 -1.23,-1.53 -2.53,-2.38l-0.77,2.91z" class="st0"/>
     <path id="svg_4" d="m51.72,20.31c0,0 -1.3,0.69 -2.07,1.69l-1.23,-0.84c0,0 0,-0.61 0,-1.38c0,0 1.23,-1.53 2.53,-2.38l0.77,2.91z" class="st0"/>
     <path id="svg_5" d="m76.19,15.4c-1.15,-0.92 -2.3,-1.92 -3.53,-2.84c-0.23,-0.15 -0.46,-0.31 -0.77,-0.46c-0.69,-0.38 -1.3,-0.23 -1.76,0.54c-0.38,0.54 -0.46,1.23 -0.31,1.92c0,0.23 0.31,0.46 0.61,0.61c0.46,0.23 0.92,0.54 1.3,0.77c0.23,0.15 0.46,0.38 0.77,0.54c0.38,0.31 0.77,0.61 1.15,0.92l0.15,0.15l1.3,-1.07c0.46,-0.31 1,-0.61 1.61,-0.92c-0.14,0.07 -0.37,-0.09 -0.52,-0.16zm-2.61,2.07l0.15,0.15c0.46,-0.38 0.84,-0.77 1.38,-1.07l-1.53,0.92zm18.18,12.5c-0.08,-1 -0.23,-1.99 -0.38,-2.99c-0.08,-0.54 -0.38,-0.69 -0.84,-0.54c-0.23,0.08 -0.46,0.08 -0.84,0.23c0,-0.77 0,-1.38 0,-2.07c0,-0.08 0.15,-0.23 0.31,-0.31c0.69,-0.31 0.69,-0.31 0.38,-1c-2.15,-5.37 -5.45,-9.97 -9.9,-13.58c-7.21,-5.91 -15.42,-8.59 -24.7,-7.29c-4.07,0.54 -7.82,1.84 -11.43,3.91c-5.76,3.31 -10.21,8.07 -13.36,13.9c-0.54,1.07 -1,2.15 -1.46,3.22c-0.15,0.38 -0.15,0.69 0.38,0.84c0.15,0 0.38,0.23 0.38,0.31c0,0.69 0,1.3 0,2.07c-0.31,-0.08 -0.46,-0.15 -0.61,-0.15c-0.69,-0.23 -1,0 -1.15,0.69c-0.46,3.07 -0.69,6.21 -0.23,9.44c1.15,8.21 4.99,14.8 11.43,19.94c1.07,0.84 1.23,0.77 1.46,-0.61c0.15,-0.69 0.31,-1.38 0.46,-2.07c1.53,0.46 2.99,0.92 4.53,1.38c0,0.23 0,0.46 0,0.77c-0.08,1.3 -0.08,2.53 -0.15,3.84c0,0.61 0.23,0.84 0.69,1.07c5.52,2.3 11.28,3.22 17.26,2.45c3.3,-0.38 6.44,-1.3 9.51,-2.53c0.38,-0.15 0.54,-0.38 0.54,-0.77c-0.23,-1.15 -0.23,-2.22 -0.31,-3.3c0,-0.54 0,-1.07 0,-1.61c1.53,-0.38 2.99,-0.84 4.45,-1.3c0.15,0.77 0.31,1.61 0.46,2.38c0.23,0.92 0.54,1.07 1.3,0.46c3.45,-2.61 6.29,-5.83 8.36,-9.74c2.84,-5.3 4.07,-10.98 3.46,-17.04zm-5.53,-4.45c0,3.45 -2.91,6.21 -6.6,6.21c-3.53,0 -6.29,-2.84 -6.29,-6.29c0,-3.68 2.84,-6.52 6.44,-6.52s6.53,3 6.45,6.6zm-19.94,-17.41c0.15,-0.15 0.38,-0.31 0.54,-0.23c0.61,0.15 1.23,0.31 1.84,0.54c3.61,1.15 6.75,3.15 9.44,5.75c0.08,0.08 0.15,0.15 0.31,0.31c-0.54,0.38 -1.07,0.69 -1.61,1c0,0 -0.08,0 -0.08,0.08c-0.15,0.08 -0.38,-0.08 -0.54,-0.15c-1.15,-0.92 -2.3,-1.92 -3.53,-2.84c-0.23,-0.15 -0.46,-0.31 -0.77,-0.46c-0.69,-0.38 -1.3,-0.23 -1.76,0.54c-0.38,0.54 -0.46,1.23 -0.31,1.92c0,0.23 0.31,0.46 0.61,0.61c0.46,0.23 0.92,0.54 1.3,0.77c0.23,0.15 0.46,0.38 0.77,0.54c0.38,0.31 0.77,0.61 1.15,0.92l0.15,0.15c-2.15,1.84 -3.15,3.76 -3.68,5.14c-0.23,0.69 -0.38,1.38 -0.61,2.15c-0.84,0 -1.76,0 -2.61,0c-0.08,0 -0.23,-0.08 -0.31,-0.23c-0.15,-0.38 -0.23,-0.77 -0.31,-1.07c0,-0.08 0,-0.15 0.08,-0.23c0.61,-0.84 1.23,-1.69 1.84,-2.53c0,0 0,0 0,-0.08c1.07,-1.53 1.15,-4.83 1.15,-5.37c0,-0.08 0,-0.08 0,-0.08c0,-2.22 -0.84,-4.3 -2.45,-6.14c-0.15,-0.15 -0.38,-0.31 -0.54,-0.54c-0.07,-0.16 -0.15,-0.39 -0.07,-0.47zm4.22,21.17c-1.07,-0.38 -1.92,-0.69 -2.76,-1l0,-0.15c0.69,-0.08 1.3,-0.15 1.99,-0.23c0.08,0 0.23,0.08 0.23,0.15c0.16,0.39 0.31,0.69 0.54,1.23zm-15.5,-17.26c2.61,-3.91 7.9,-3.22 10.05,0.31c0.69,1.07 1,2.3 1,3.61c0,2.3 -1,4.14 -2.68,5.6c-1.69,1.53 -4.37,1.69 -6.21,0.54c-3.15,-2 -4.61,-6.45 -2.16,-10.06zm1.38,14.58c0,-0.23 -0.08,-0.46 -0.08,-0.77c2.45,0.92 4.83,0.84 7.21,0c0,0.69 -0.08,1.3 -0.08,1.84c0,0.77 0.15,1.53 0.61,2.22c0.08,0.15 0.08,0.46 -0.08,0.61c-0.77,1.07 -1.84,1.61 -3.15,1.76c-1.69,0.15 -3.22,0 -4.53,-1.23c-0.61,-0.61 -0.69,-0.77 -0.23,-1.53c0.49,-0.91 0.41,-1.91 0.33,-2.9zm-13.96,-13.04c2.99,-2.61 6.44,-4.53 10.28,-5.68c0.46,-0.15 0.77,-0.08 1,0.46c-0.31,0.38 -0.69,0.77 -1,1.15c-1.92,2.22 -2.45,4.76 -2.22,7.52c0.23,2.45 1.23,4.45 2.91,6.21c0.08,0.08 0.15,0.31 0.15,0.46c-0.08,0.38 -0.23,0.77 -0.38,1.23c-0.92,0 -1.84,-0.08 -2.84,-0.08c-0.31,-2.99 -1.61,-5.37 -4.07,-7.36c0.77,-0.54 1.46,-1.07 2.15,-1.61c0.38,-0.31 0.84,-0.54 1.23,-0.77c0.38,-0.23 0.54,-0.46 0.46,-0.84c0,-0.38 -0.08,-0.77 -0.15,-1.07c-0.23,-1.07 -1.15,-1.53 -2.07,-0.92c-1.23,0.84 -2.53,1.92 -3.84,2.91c-0.15,0.15 -0.38,0.38 -0.61,0.54c-0.61,-0.38 -1.23,-0.77 -1.92,-1.23c0.31,-0.31 0.62,-0.62 0.92,-0.92zm9.44,14.65c0,0.08 0,0.08 0,0.15c-0.77,0.31 -1.53,0.61 -2.45,0.92c0.23,-0.46 0.31,-0.84 0.46,-1.15c0.08,-0.08 0.23,-0.23 0.31,-0.15c0.6,0 1.14,0.15 1.68,0.23zm-11.58,-9.29c3.45,0 6.37,3.07 6.37,6.6c0,2.68 -2.38,6.29 -6.44,6.21c-3.53,-0.08 -6.29,-2.76 -6.29,-6.21c-0.01,-3.76 2.75,-6.6 6.36,-6.6zm0.99,20.03c0,0.08 0,0.08 0,0.15c-0.77,3.45 -1.46,6.83 -2.22,10.2c-4.6,-4.99 -6.6,-10.89 -6.44,-17.57c0.54,0.54 1,1 1.46,1.46c0.08,0 0.08,0.15 0.08,0.31c0,2.68 0.54,5.29 1.23,7.9c0,0.15 0.08,0.31 0.15,0.38c0.23,0.77 0.61,0.92 1.38,0.61c0.77,-0.38 1.46,-0.77 2.22,-1.07c0.31,-0.23 0.38,-0.46 0.23,-0.77c-0.23,-0.69 -0.38,-1.38 -0.69,-2.15c1,0.08 1.84,0.15 2.68,0.23c0,0.16 -0.08,0.24 -0.08,0.32zm0.16,-3c-0.92,-0.15 -1.76,-0.23 -2.61,-0.31c-0.31,0 -0.46,-0.08 -0.54,-0.23c0,-0.08 0,-0.15 0,-0.31l4.22,0c0,0 0,0.15 -0.08,0.23c0,0.15 -0.08,0.23 -0.08,0.38c-0.15,0.4 -0.3,0.32 -0.91,0.24zm5.37,11.97c-0.23,1.23 -0.38,2.53 -0.61,3.99c-0.77,-0.23 -1.46,-0.38 -2.15,-0.61c-0.46,-0.15 -1,-0.31 -1.46,-0.46c-0.08,-0.08 -0.31,-0.31 -0.23,-0.46c0.31,-1.53 0.61,-2.99 1,-4.6c1,0.38 1.92,0.77 2.91,1.07c0.54,0.23 0.61,0.46 0.54,1.07zm6.9,-0.46c-0.84,0.77 -1.15,1.76 -1.15,2.91c0,2.45 0,4.91 0,7.36l0,0.77c-0.92,-0.31 -1.76,-0.54 -2.53,-0.84c-0.08,-0.08 -0.23,-0.31 -0.23,-0.54c0.08,-2.84 0.15,-5.68 0.23,-8.51c0,-0.54 0.08,-1 0.08,-1.53l3.91,0c-0.16,0.15 -0.23,0.3 -0.31,0.38zm10.51,11.66c-2.07,0.38 -4.14,0.46 -6.14,0.31c-0.69,-0.08 -1.46,-0.15 -2.15,-0.31c-0.15,0 -0.38,-0.23 -0.38,-0.38c0,-2.76 0,-5.52 0,-8.28c0,-0.84 0.46,-1.3 1.07,-1.76c2.07,1.38 4.14,1.46 6.29,0.15c0.08,-0.08 0.23,-0.08 0.31,-0.08c0.46,0.31 1,0.69 1.07,1.3c0.01,3.07 -0.07,5.98 -0.07,9.05zm-6.6,-14.88c0,-1.23 1.07,-2.22 2.3,-2.22c1.3,0 2.38,1.07 2.38,2.38c0,1.23 -1.07,2.22 -2.3,2.22c-1.38,-0.08 -2.38,-1 -2.38,-2.38zm12.35,13.5c-0.77,0.31 -1.61,0.54 -2.61,0.84l0,-2.53c0,-1.46 0,-2.91 0,-4.45c0,-2.53 0,-2.53 -1.46,-4.53l3.84,0c0.08,0.54 0.15,1.07 0.15,1.53c0.08,2.91 0.23,5.75 0.31,8.67c0,0.16 -0.15,0.39 -0.23,0.47zm1.31,-15.34c-0.08,-0.38 -0.31,-0.69 -0.77,-0.61c-0.46,0.08 -0.69,0.31 -0.69,0.77l0,1.38c-1.38,0 -2.68,0 -3.91,0c-0.15,0 -0.31,-0.23 -0.38,-0.46c-0.31,-1.53 -1.07,-2.68 -2.38,-3.61c-3.22,-2.22 -7.67,-0.61 -8.59,3.22c-0.08,0.23 -0.15,0.54 -0.23,0.84l-4.23,0c0,-0.46 0,-0.92 -0.08,-1.3c0,-0.38 -0.15,-0.69 -0.61,-0.77c-0.46,-0.15 -0.69,0.08 -0.84,0.54c-0.15,0.54 -0.31,1.07 -0.46,1.69c-1.46,-0.54 -2.84,-1 -4.14,-1.53c-0.15,-0.08 -0.23,-0.54 -0.15,-0.69c0.23,-1.3 0.54,-2.53 0.84,-3.76c0.23,-0.84 0.54,-1.61 0.84,-2.45c0.38,-1.07 1.15,-1.84 2.3,-2.22c1.61,-0.61 3.3,-1.23 4.99,-1.76c1.53,2.84 4.07,3.84 7.06,3.84c2.99,0 5.52,-1.07 7.13,-3.84c1.92,0.69 3.76,1.23 5.6,1.92c1,0.31 1.53,1.15 1.76,2.15c0.61,1.92 1.07,3.91 1.69,5.91c0.08,0.23 0.08,0.54 0.15,0.92c-1.46,0.54 -2.91,1.07 -4.37,1.61c-0.23,-0.72 -0.38,-1.26 -0.53,-1.79zm2.37,9.51c-0.23,-1.53 -0.38,-2.91 -0.61,-4.37c0,-0.15 0.08,-0.46 0.23,-0.54c1.07,-0.38 2.15,-0.77 3.3,-1.15c0.31,1.61 0.69,3.22 1.07,4.91c-1.38,0.38 -2.68,0.77 -3.99,1.15zm3.76,-16.88l4.22,0c0.08,0 0.08,0.08 0.15,0.08c-0.15,0.15 -0.31,0.46 -0.46,0.46c-1.15,0.15 -2.38,0.31 -3.61,0.46c-0.07,-0.31 -0.22,-0.69 -0.3,-1zm3.45,14.42c-0.77,-3.61 -1.46,-7.21 -2.22,-10.82c0.38,0 0.77,-0.08 1.23,-0.08l1.38,-0.08c-0.23,0.61 -0.46,1.15 -0.61,1.76c-0.31,0.77 -0.23,0.84 0.46,1.23c0.61,0.23 1.3,0.61 1.92,0.92c0.77,0.38 1.07,0.23 1.38,-0.61c0.38,-1.38 0.77,-2.76 1,-4.14c0.23,-1.38 0.31,-2.76 0.46,-4.14c0,-0.15 0.08,-0.23 0.15,-0.31c0.38,-0.54 0.84,-0.92 1.38,-1.46c0.07,6.84 -2,12.67 -6.53,17.73zm-4.67,-34.05c-1.15,-0.92 -2.3,-1.92 -3.53,-2.84c-0.23,-0.15 -0.46,-0.31 -0.77,-0.46c-0.69,-0.38 -1.3,-0.23 -1.76,0.54c-0.38,0.54 -0.46,1.23 -0.31,1.92c0,0.23 0.31,0.46 0.61,0.61c0.46,0.23 0.92,0.54 1.3,0.77c0.23,0.15 0.46,0.38 0.77,0.54c0.38,0.31 0.77,0.61 1.15,0.92l1.46,-0.92c0.46,-0.31 1,-0.61 1.61,-0.92c-0.15,0.07 -0.38,-0.09 -0.53,-0.16z" class="st1"/>
     <circle id="svg_6" r="1.3" cy="13.86" cx="57.7" class="st1"/>
     <circle id="svg_7" r="1.3" cy="13.86" cx="62.15" class="st1"/>
     <path id="svg_8" d="m42.28,79.06c0.84,1.3 1.76,2.53 2.61,3.84c0.15,0.23 0.31,0.38 0.38,0.61c0.31,0.61 0.08,1.07 -0.46,1.07c-1.15,0.08 -2.3,0.08 -3.45,0c-0.31,0 -0.61,-0.38 -0.84,-0.61c-0.77,-1.15 -1.53,-2.3 -2.3,-3.45c-0.15,-0.31 -0.38,-0.38 -0.69,-0.38c-0.61,0 -1.15,0 -1.84,0c0,0.46 0,0.84 0,1.3c0,0.77 0,1.61 0,2.38c0,0.61 -0.31,0.84 -0.92,0.92c-0.92,0 -1.76,0 -2.61,0c-0.77,0 -1,-0.23 -1,-1c0,-4.68 0,-9.28 0,-13.96c0,-0.61 0.23,-0.92 0.84,-0.92c0.77,-0.08 1.53,0 2.22,0c1.76,0 3.53,0 5.22,0.08c2.22,0.15 3.91,1.38 4.76,3.53c0.77,1.99 0.61,3.99 -0.84,5.75c-0.31,0.23 -0.7,0.54 -1.08,0.84zm-6.6,-2.83c0.15,0 0.23,0 0.31,0c0.84,0 1.61,0 2.38,0c1,0 1.46,-0.46 1.53,-1.38c0.08,-0.92 -0.46,-1.69 -1.38,-1.76c-0.92,-0.08 -1.92,0 -2.91,0c0.07,0.99 0.07,2.06 0.07,3.14z" class="st1"/>
     <path id="svg_9" d="m83.09,84.82c-1.92,0 -3.76,-0.54 -5.37,-1.61c-1.07,-0.69 -1.15,-1.3 -0.46,-2.3c0.38,-0.54 0.77,-1 1.15,-1.46c0.31,-0.38 0.61,-0.46 1.07,-0.15c1,0.77 2.15,1.38 3.53,1.46c0.46,0 0.92,0 1.38,-0.15c0.38,-0.08 0.77,-0.31 0.69,-0.77c-0.08,-0.23 -0.31,-0.61 -0.54,-0.69c-0.61,-0.23 -1.23,-0.38 -1.92,-0.61c-1,-0.38 -2.07,-0.61 -2.99,-1.15c-2.91,-1.61 -2.45,-5.22 -0.84,-6.9c1.53,-1.61 3.53,-2.07 5.6,-1.92c1.53,0.08 2.99,0.54 4.3,1.46c1,0.69 1,1.07 0.31,1.99c-0.38,0.46 -0.69,0.92 -1,1.3c-0.54,0.61 -0.77,0.69 -1.53,0.31c-0.54,-0.23 -1.07,-0.61 -1.69,-0.77c-0.61,-0.08 -1.3,-0.08 -1.99,0c-0.23,0 -0.54,0.38 -0.54,0.54s0.15,0.61 0.38,0.69c0.61,0.31 1.38,0.54 2.07,0.69c0.84,0.31 1.76,0.54 2.61,0.92c2.76,1.23 3.07,4.3 1.61,6.37c-1.07,1.61 -2.68,2.38 -4.53,2.61c-0.46,0.06 -0.84,0.06 -1.3,0.14z" class="st1"/>
     <g id="svg_10">
      <path id="svg_11" d="m33.46,91.87l-0.77,-1.07l-0.61,0l0,1.07l-0.54,0l0,-2.61l1.15,0c0.69,0 1.23,0.15 1.23,0.77c0,0.38 -0.31,0.61 -0.77,0.77l0.85,1.07c0.07,0 -0.54,0 -0.54,0zm-1.38,-1.38l0.54,0c0.54,0 0.77,-0.15 0.77,-0.46c0,-0.31 -0.31,-0.38 -0.77,-0.38l-0.54,0l0,0.84z" class="st1"/>
      <path id="svg_12" d="m34.46,90.57c0,-0.84 0.61,-1.3 1.53,-1.3c0.92,0 1.53,0.54 1.53,1.3c0,0.77 -0.61,1.38 -1.53,1.38c-0.92,0 -1.53,-0.54 -1.53,-1.38zm2.45,0c0,-0.61 -0.38,-1 -0.92,-1c-0.54,0 -0.92,0.38 -0.92,1c0,0.61 0.38,1 0.92,1c0.54,0 0.92,-0.39 0.92,-1z" class="st1"/>
      <path id="svg_13" d="m38.21,89.27l1.07,0c0.69,0 1.23,0.15 1.23,0.61c0,0.23 -0.15,0.46 -0.46,0.54l0,0c0.38,0.08 0.69,0.23 0.69,0.61c0,0.54 -0.54,0.77 -1.3,0.77l-1.23,0l0,-2.53zm1,1.07c0.54,0 0.77,-0.15 0.77,-0.38c0,-0.31 -0.23,-0.38 -0.77,-0.38l-0.46,0l0,0.77l0.46,0l0,-0.01zm0.08,1.23c0.54,0 0.84,-0.15 0.84,-0.46c0,-0.31 -0.31,-0.38 -0.84,-0.38l-0.54,0l0,0.92l0.54,0l0,-0.08z" class="st1"/>
      <path id="svg_14" d="m41.13,90.57c0,-0.84 0.61,-1.3 1.53,-1.3s1.53,0.54 1.53,1.3c0,0.77 -0.61,1.38 -1.53,1.38c-0.84,0 -1.53,-0.54 -1.53,-1.38zm2.53,0c0,-0.61 -0.38,-1 -0.92,-1c-0.54,0 -0.92,0.38 -0.92,1c0,0.61 0.38,1 0.92,1c0.54,0 0.92,-0.39 0.92,-1z" class="st1"/>
      <path id="svg_15" d="m45.5,89.65l-1,0l0,-0.31l2.61,0l0,0.31l-1.07,0l0,2.22l-0.54,0l0,-2.22z" class="st1"/>
      <path id="svg_16" d="m48.57,90.57c0,-0.84 0.69,-1.38 1.53,-1.38c0.46,0 0.77,0.15 1,0.31l-0.31,0.31c-0.15,-0.15 -0.38,-0.23 -0.69,-0.23c-0.61,0 -1,0.38 -1,1c0,0.61 0.38,1 1,1c0.31,0 0.54,-0.08 0.77,-0.31l0.31,0.23c-0.31,0.23 -0.61,0.38 -1.07,0.38c-0.85,0.07 -1.54,-0.47 -1.54,-1.31z" class="st1"/>
      <path id="svg_17" d="m51.41,90.57c0,-0.84 0.61,-1.3 1.53,-1.3c0.92,0 1.53,0.54 1.53,1.3c0,0.77 -0.61,1.38 -1.53,1.38c-0.92,0 -1.53,-0.54 -1.53,-1.38zm2.53,0c0,-0.61 -0.38,-1 -0.92,-1c-0.54,0 -0.92,0.38 -0.92,1c0,0.61 0.38,1 0.92,1c0.54,0 0.92,-0.39 0.92,-1z" class="st1"/>
      <path id="svg_18" d="m55.24,89.27l0.54,0l1.15,1.53l0.38,0.54l0,0c0,-0.23 -0.08,-0.61 -0.08,-0.84l0,-1.23l0.54,0l0,2.61l-0.54,0l-1.15,-1.53l-0.38,-0.55l0,0c0,0.23 0.08,0.54 0.08,0.84l0,1.23l-0.54,0l0,-2.6l0,0z" class="st1"/>
      <path id="svg_19" d="m59.39,89.65l-1,0l0,-0.31l2.61,0l0,0.31l-1.07,0l0,2.22l-0.54,0l0,-2.22z" class="st1"/>
      <path id="svg_20" d="m63.45,91.87l-0.77,-1.07l-0.61,0l0,1.07l-0.54,0l0,-2.61l1.15,0c0.69,0 1.23,0.15 1.23,0.77c0,0.38 -0.31,0.61 -0.77,0.77l0.84,1.07c0.09,0 -0.53,0 -0.53,0zm-1.3,-1.38l0.54,0c0.54,0 0.77,-0.15 0.77,-0.46c0,-0.31 -0.31,-0.38 -0.77,-0.38l-0.54,0l0,0.84z" class="st1"/>
      <path id="svg_21" d="m64.45,90.57c0,-0.84 0.61,-1.3 1.53,-1.3s1.53,0.54 1.53,1.3c0,0.77 -0.61,1.38 -1.53,1.38c-0.84,0 -1.53,-0.54 -1.53,-1.38zm2.53,0c0,-0.61 -0.38,-1 -0.92,-1c-0.61,0 -0.92,0.38 -0.92,1c0,0.61 0.38,1 0.92,1s0.92,-0.39 0.92,-1z" class="st1"/>
      <path id="svg_22" d="m68.21,89.27l0.54,0l0,2.22l1.46,0l0,0.31l-1.99,0l0,-2.53l-0.01,0z" class="st1"/>
      <path id="svg_23" d="m71.66,91.57l0.31,-0.31c0.23,0.15 0.61,0.31 0.92,0.31c0.38,0 0.69,-0.15 0.69,-0.38s-0.23,-0.31 -0.54,-0.38l-0.46,-0.15c-0.31,-0.08 -0.69,-0.31 -0.69,-0.69s0.46,-0.69 1.15,-0.69c0.38,0 0.77,0.15 1.07,0.31l-0.31,0.23c-0.23,-0.15 -0.46,-0.23 -0.77,-0.23c-0.38,0 -0.61,0.15 -0.61,0.31c0,0.23 0.31,0.31 0.54,0.38l0.46,0.15c0.38,0.15 0.69,0.31 0.69,0.69c0,0.38 -0.46,0.77 -1.23,0.77c-0.45,0.06 -0.84,-0.09 -1.22,-0.32z" class="st1"/>
      <path id="svg_24" d="m75.34,90.88l-1.07,-1.61l0.61,0l0.38,0.69c0.08,0.15 0.23,0.38 0.31,0.54l0,0c0.08,-0.23 0.23,-0.38 0.31,-0.54l0.38,-0.69l0.61,0l-1.07,1.61l0,1l-0.46,0l0,-1z" class="st1"/>
      <path id="svg_25" d="m77.03,91.57l0.31,-0.31c0.23,0.15 0.61,0.31 0.92,0.31c0.38,0 0.69,-0.15 0.69,-0.38s-0.23,-0.31 -0.54,-0.38l-0.46,-0.15c-0.31,-0.08 -0.69,-0.31 -0.69,-0.69s0.46,-0.69 1.15,-0.69c0.38,0 0.77,0.15 1.07,0.31l-0.31,0.23c-0.23,-0.15 -0.46,-0.23 -0.77,-0.23c-0.38,0 -0.61,0.15 -0.61,0.31c0,0.23 0.31,0.31 0.54,0.38l0.46,0.15c0.38,0.15 0.69,0.31 0.69,0.69c0,0.38 -0.46,0.77 -1.23,0.77c-0.45,0.06 -0.91,-0.09 -1.22,-0.32z" class="st1"/>
      <path id="svg_26" d="m80.71,89.65l-1,0l0,-0.31l2.61,0l0,0.31l-1,0l0,2.22l-0.61,0l0,-2.22z" class="st1"/>
      <path id="svg_27" d="m82.94,89.27l2.07,0l0,0.31l-1.53,0l0,0.69l1.3,0l0,0.31l-1.3,0l0,0.84l1.53,0l0,0.31l-2.07,0l0,-2.46z" class="st1"/>
      <path id="svg_28" d="m85.77,89.27l0.61,0l0.61,1.3c0.08,0.15 0.15,0.38 0.23,0.54l0,0c0.08,-0.15 0.15,-0.38 0.23,-0.54l0.61,-1.3l0.61,0l0,2.61l-0.38,0l0,-1.3c0,-0.23 0.08,-0.54 0.08,-0.77l0,0l-0.31,0.61l-0.61,1.23l-0.38,0l-0.61,-1.23l-0.31,-0.61l0,0c0,0.23 0.08,0.54 0.08,0.77l0,1.3l-0.46,0l0,-2.61z" class="st1"/>
     </g>
     <path id="svg_29" d="m76.95,15.4l-1.84,1.15c0.46,-0.38 1,-0.69 1.61,-1c0,0 0.08,0 0.08,-0.08c0.08,0 0.15,-0.07 0.15,-0.07z" class="st1"/>
     <path id="svg_30" d="m41.28,38.95c0,-0.08 0.08,-0.23 0.08,-0.31c-0.84,-0.08 -1.69,-0.15 -2.68,-0.23c0,0 -0.38,-2.15 -0.46,-3.07c0.08,0.15 0.31,0.31 0.61,0.31c0.84,0.08 1.76,0.15 2.61,0.31c0.61,0.08 0.77,0.08 0.92,-0.23c0,-0.08 -0.85,2.37 -1.08,3.22z" class="st0"/>
     <path id="svg_31" d="m81.79,35.11c-0.08,1.61 -0.54,3.3 -0.54,3.3l-1.38,0.15l-1.23,0.08c-0.23,-1 -0.92,-2.61 -0.92,-2.61c1.23,-0.15 2.45,-0.23 3.61,-0.38c0.15,-0.08 0.3,-0.39 0.46,-0.54z" class="st0"/>
     <g id="svg_32">
      <path id="svg_33" d="m74.73,23.07l0.84,0l0,0.15l-0.61,0l0,0.46l0.54,0l0,0.15l-0.54,0l0,0.61l-0.23,0c0,0.01 0,-1.37 0,-1.37z" class="st1"/>
      <path id="svg_34" d="m76.57,24.52l-0.31,-0.61l-0.23,0l0,0.54l-0.23,0l0,-1.38l0.46,0c0.31,0 0.54,0.08 0.54,0.38c0,0.23 -0.08,0.38 -0.31,0.38l0.38,0.69l-0.3,0l0,0zm-0.54,-0.76l0.23,0c0.23,0 0.31,-0.08 0.31,-0.23c0,-0.15 -0.08,-0.23 -0.31,-0.23l-0.23,0l0,0.46z" class="st1"/>
      <path id="svg_35" d="m77.03,23.76c0,-0.46 0.23,-0.69 0.61,-0.69c0.38,0 0.61,0.31 0.61,0.69c0,0.46 -0.23,0.77 -0.61,0.77c-0.38,-0.01 -0.61,-0.31 -0.61,-0.77zm1,0c0,-0.31 -0.15,-0.54 -0.38,-0.54s-0.38,0.23 -0.38,0.54c0,0.31 0.15,0.54 0.38,0.54c0.15,0.07 0.38,-0.16 0.38,-0.54z" class="st1"/>
      <path id="svg_36" d="m78.49,23.07l0.23,0l0.46,0.84l0.15,0.31l0,0c0,-0.15 0,-0.31 0,-0.46l0,-0.69l0.23,0l0,1.38l-0.23,0l-0.46,-0.77l-0.15,-0.31l0,0c0,0.15 0,0.31 0,0.46l0,0.69l-0.23,0l0,-1.45z" class="st1"/>
      <path id="svg_37" d="m80.17,23.3l-0.38,0l0,-0.23l1.07,0l0,0.15l-0.46,0l0,1.23l-0.23,0l0,-1.15z" class="st1"/>
      <path id="svg_38" d="m81.48,23.07l0.84,0l0,0.15l-0.61,0l0,0.38l0.54,0l0,0.15l-0.54,0l0,0.46l0.61,0l0,0.15l-0.84,0c0,0.16 0,-1.29 0,-1.29z" class="st1"/>
      <path id="svg_39" d="m82.63,23.07l0.23,0l0.46,0.84l0.15,0.31l0,0c0,-0.15 0,-0.31 0,-0.46l0,-0.69l0.23,0l0,1.38l-0.23,0l-0.54,-0.77l-0.08,-0.31l0,0c0,0.15 0,0.31 0,0.46l0,0.69l-0.23,0l0,-1.45l0.01,0z" class="st1"/>
      <path id="svg_40" d="m84.01,23.07l0.38,0c0.46,0 0.69,0.23 0.69,0.69c0,0.46 -0.23,0.77 -0.69,0.77l-0.38,0l0,-1.46l0,0zm0.38,1.22c0.31,0 0.46,-0.15 0.46,-0.54c0,-0.38 -0.15,-0.46 -0.46,-0.46l-0.15,0l0,1.07l0.15,0l0,-0.07z" class="st1"/>
     </g>
     <g id="svg_41">
      <path id="svg_42" d="m76.19,28.28l0.23,-0.31c0.23,0.23 0.46,0.31 0.77,0.31c0.31,0 0.54,-0.15 0.54,-0.38s-0.15,-0.31 -0.46,-0.46l-0.38,-0.15c-0.23,-0.08 -0.54,-0.31 -0.54,-0.69c0,-0.46 0.38,-0.77 0.92,-0.77c0.31,0 0.61,0.15 0.84,0.38l-0.23,0.23c-0.23,-0.15 -0.38,-0.23 -0.61,-0.23c-0.31,0 -0.46,0.15 -0.46,0.38s0.23,0.31 0.46,0.38l0.38,0.15c0.31,0.15 0.54,0.31 0.54,0.77c0,0.46 -0.38,0.77 -1,0.77c-0.39,0.01 -0.77,-0.15 -1,-0.38z" class="st1"/>
      <path id="svg_43" d="m78.72,25.83l0.69,0c0.84,0 1.3,0.46 1.3,1.38s-0.46,1.38 -1.3,1.38l-0.77,0l0,-2.76l0.08,0zm0.61,2.45c0.61,0 0.92,-0.38 0.92,-1.07c0,-0.69 -0.31,-1 -0.92,-1l-0.23,0l0,2.07c0,0 0.23,0 0.23,0z" class="st1"/>
      <path id="svg_44" d="m81.32,25.83l0.46,0l0,1.3l0,0l1.07,-1.3l0.46,0l-0.91,1.07l1.07,1.69l-0.54,0l-0.77,-1.38l-0.46,0.54l0,0.84l-0.38,0l0,-2.76l0,0z" class="st1"/>
     </g>
     <g id="svg_45">
      <path id="svg_46" d="m35.91,23.83c0,-0.46 0.31,-0.77 0.61,-0.77c0.15,0 0.31,0.08 0.38,0.15l-0.08,0.15c-0.08,-0.08 -0.23,-0.08 -0.31,-0.08c-0.23,0 -0.38,0.23 -0.38,0.54s0.15,0.54 0.38,0.54c0.15,0 0.23,-0.08 0.31,-0.15l0.15,0.08c-0.15,0.15 -0.31,0.23 -0.46,0.23c-0.37,0 -0.6,-0.23 -0.6,-0.69z" class="st1"/>
      <path id="svg_47" d="m37.06,23.76c0,-0.46 0.23,-0.69 0.61,-0.69s0.61,0.31 0.61,0.69c0,0.46 -0.23,0.77 -0.61,0.77c-0.38,-0.01 -0.61,-0.31 -0.61,-0.77zm1,0c0,-0.31 -0.15,-0.54 -0.38,-0.54s-0.38,0.23 -0.38,0.54c0,0.31 0.15,0.54 0.38,0.54s0.38,-0.16 0.38,-0.54z" class="st1"/>
      <path id="svg_48" d="m38.6,23.07l0.23,0l0.46,0.84l0.15,0.31l0,0c0,-0.15 0,-0.31 0,-0.46l0,-0.69l0.23,0l0,1.38l-0.31,0l-0.46,-0.77l-0.15,-0.31l0,0c0,0.15 0,0.31 0,0.46l0,0.69l-0.15,0l0,-1.45l0,0z" class="st1"/>
      <path id="svg_49" d="m40.29,23.3l-0.46,0l0,-0.23l1.07,0l0,0.15l-0.46,0l0,1.23l-0.15,0c0,0.07 0,-1.15 0,-1.15z" class="st1"/>
      <path id="svg_50" d="m41.9,24.52l-0.31,-0.61l-0.23,0l0,0.54l-0.23,0l0,-1.38l0.46,0c0.31,0 0.54,0.08 0.54,0.38c0,0.23 -0.08,0.38 -0.31,0.38l0.31,0.61l-0.23,0.08l0,0zm-0.54,-0.76l0.23,0c0.23,0 0.31,-0.08 0.31,-0.23c0,-0.15 -0.08,-0.23 -0.31,-0.23l-0.23,0l0,0.46z" class="st1"/>
      <path id="svg_51" d="m42.28,23.76c0,-0.46 0.23,-0.69 0.61,-0.69s0.61,0.31 0.61,0.69c0,0.46 -0.23,0.77 -0.61,0.77c-0.3,-0.01 -0.61,-0.31 -0.61,-0.77zm1,0c0,-0.31 -0.15,-0.54 -0.38,-0.54s-0.38,0.23 -0.38,0.54c0,0.31 0.15,0.54 0.38,0.54s0.38,-0.16 0.38,-0.54z" class="st1"/>
      <path id="svg_52" d="m43.81,23.07l0.23,0l0,1.23l0.61,0l0,0.15l-0.84,0c0,0.07 0,-1.38 0,-1.38z" class="st1"/>
     </g>
     <g id="svg_53">
      <path id="svg_54" d="m38.06,27.82l-1,0l-0.23,0.77l-0.46,0l0.92,-2.76l0.54,0l0.92,2.76l-0.46,0l-0.23,-0.77zm-0.15,-0.3l-0.08,-0.38c-0.08,-0.31 -0.15,-0.61 -0.23,-0.92l0,0c-0.15,0.31 -0.23,0.61 -0.31,0.92l-0.08,0.38l0.7,0z" class="st1"/>
      <path id="svg_55" d="m39.14,25.83l0.84,0c0.61,0 1.07,0.23 1.07,0.84s-0.46,0.92 -1.07,0.92l-0.46,0l0,1l-0.38,0l0,-2.76l0,0zm0.76,1.38c0.46,0 0.69,-0.15 0.69,-0.54c0,-0.38 -0.23,-0.46 -0.69,-0.46l-0.38,0l0,1l0.38,0z" class="st1"/>
      <path id="svg_56" d="m41.51,25.83l0.84,0c0.61,0 1.07,0.23 1.07,0.84s-0.46,0.92 -1.07,0.92l-0.38,0l0,1l-0.46,0l0,-2.76l0,0zm0.85,1.38c0.46,0 0.69,-0.15 0.69,-0.54c0,-0.38 -0.23,-0.46 -0.69,-0.46l-0.38,0l0,1l0.38,0z" class="st1"/>
     </g>
     <path id="svg_57" d="m76.19,80.83c-0.08,-0.08 -0.15,-0.15 -0.31,-0.23c-0.61,-0.46 -1.3,-0.92 -1.99,-1.46c-0.38,-0.31 -0.69,-0.23 -1.07,0.08c-1.23,1.3 -3.45,1.46 -4.91,0.38c-1.3,-0.92 -1.76,-3.07 -0.92,-4.68c1.15,-2.15 3.84,-2.68 5.91,-1.15c0.38,0.31 0.69,0.31 1.15,0c0.61,-0.46 1.3,-0.92 1.92,-1.38c0.08,-0.08 0.15,-0.08 0.15,-0.15c0.61,-0.46 0.61,-0.69 0,-1.3c-0.15,-0.08 -0.23,-0.23 -0.38,-0.31c-1.76,-1.38 -3.68,-2.07 -5.83,-1.99c-0.08,0 -0.15,0 -0.31,0c-1.92,0 -3.61,0.69 -4.99,1.92c-0.08,0.08 -0.23,0.23 -0.38,0.38c-0.15,0.15 -0.38,0.38 -0.54,0.61c-0.08,0.08 -0.15,0.15 -0.23,0.31c-0.08,0.08 -0.15,0.15 -0.23,0.31c-0.08,0.15 -0.23,0.38 -0.38,0.61c-0.38,0.69 -0.61,1.38 -0.77,2.15c-0.08,0.61 -0.15,1.15 -0.15,1.69s0.08,1.07 0.15,1.61c0.54,2.76 2.38,4.99 4.91,5.91l0.08,0c0.84,0.31 1.69,0.46 2.61,0.46l0,0c0.15,0 0.23,0 0.38,0c2.38,0.08 4.45,-0.92 6.06,-2.68c0.45,-0.48 0.53,-0.71 0.07,-1.09z" class="st1"/>
     <path id="svg_58" d="m53.17,72.24c-3.61,0 -6.6,2.84 -6.6,6.29s2.99,6.29 6.6,6.29s6.6,-2.84 6.6,-6.29c0,-3.53 -2.99,-6.29 -6.6,-6.29zm0,9.51c-1.92,0 -3.45,-1.46 -3.45,-3.3c0,-1.84 1.53,-3.3 3.45,-3.3c1.92,0 3.45,1.46 3.45,3.3c0,1.84 -1.61,3.3 -3.45,3.3z" class="st1"/>
     <circle id="svg_59" r="1.61" cy="75.38" cx="53.17" class="st2"/>
    </g>
   </g>
   <rect id="svg_60" height="93.58" width="72.11" class="st3" y="0.21" x="23.95"/>
  </g>
 </g>
</svg>